<?xml version="1.0" encoding="UTF-8" standalone="no"?>
<!-- Created with Inkscape (http://www.inkscape.org/) -->

<svg
   xmlns:dc="http://purl.org/dc/elements/1.1/"
   xmlns:cc="http://creativecommons.org/ns#"
   xmlns:rdf="http://www.w3.org/1999/02/22-rdf-syntax-ns#"
   xmlns:svg="http://www.w3.org/2000/svg"
   xmlns="http://www.w3.org/2000/svg"
   xmlns:sodipodi="http://sodipodi.sourceforge.net/DTD/sodipodi-0.dtd"
   xmlns:inkscape="http://www.inkscape.org/namespaces/inkscape"
   width="210mm"
   height="297mm"
   id="svg3915"
   version="1.1"
   inkscape:version="0.48.5 r10040"
   sodipodi:docname="タケノコ.svg"
   inkscape:export-filename="\\Dns03\共通\Webチーム\北九州観光おすすめマップ(井本)\01.サイト設計\提案画像\タケノコ.png"
   inkscape:export-xdpi="90"
   inkscape:export-ydpi="90">
  <defs
     id="defs3917" />
  <sodipodi:namedview
     id="base"
     pagecolor="#ffffff"
     bordercolor="#666666"
     borderopacity="1.0"
     inkscape:pageopacity="0.0"
     inkscape:pageshadow="2"
     inkscape:zoom="0.44180363"
     inkscape:cx="472.3665"
     inkscape:cy="480.35686"
     inkscape:document-units="px"
     inkscape:current-layer="layer1"
     showgrid="false"
     inkscape:window-width="1366"
     inkscape:window-height="705"
     inkscape:window-x="-8"
     inkscape:window-y="-8"
     inkscape:window-maximized="1" />
  <metadata
     id="metadata3920">
    <rdf:RDF>
      <cc:Work
         rdf:about="">
        <dc:format>image/svg+xml</dc:format>
        <dc:type
           rdf:resource="http://purl.org/dc/dcmitype/StillImage" />
        <dc:title></dc:title>
      </cc:Work>
    </rdf:RDF>
  </metadata>
  <g
     inkscape:label="レイヤー 1"
     inkscape:groupmode="layer"
     id="layer1">
    <path
       style="fill:none;stroke:#000000;stroke-width:1px;stroke-linecap:butt;stroke-linejoin:miter;stroke-opacity:1"
       d="m 306.8959,743.86578 c 5.46838,-1.39335 10.93675,-4.46443 16.40513,2.80087 11.95258,-5.57112 15.10217,-0.13852 21.20663,1.6005 3.9863,4.7354 7.79628,10.26423 12.804,10.40325 l 12.804,0.40013 16.80525,16.005 5.60175,11.60363"
       id="path3970"
       inkscape:connector-curvature="0"
       sodipodi:nodetypes="ccccccc" />
    <path
       style="fill:#d38d5f;stroke:#000000;stroke-width:2;stroke-linecap:butt;stroke-linejoin:miter;stroke-miterlimit:4;stroke-opacity:1;stroke-dasharray:none"
       d="m 365.71429,531.39938 c 25.11462,-47.23087 58.50158,-55.82101 72.0225,-52.01625 0,0 44.59628,78.14704 23.20725,133.64176 0,0 -37.61175,47.21475 -42.41325,19.206 -4.8015,-28.00875 -52.8165,-100.83151 -52.8165,-100.83151 z"
       id="path3972"
       inkscape:connector-curvature="0"
       sodipodi:nodetypes="cccsc" />
    <path
       style="fill:#d38d5f;stroke:#000000;stroke-width:1px;stroke-linecap:butt;stroke-linejoin:miter;stroke-opacity:1"
       d="m 459.34354,539.40188 c -3.33149,-22.10025 39.69412,-39.52124 67.22101,-44.01375 0,0 1.6005,83.22601 -5.60175,85.62676 l -57.618,20.8065 z"
       id="path3974"
       inkscape:connector-curvature="0"
       sodipodi:nodetypes="ccccc" />
    <path
       style="fill:#d38d5f;stroke:#000000;stroke-width:1px;stroke-linecap:butt;stroke-linejoin:miter;stroke-opacity:1"
       d="m 440.93779,488.98613 c 3.11787,-27.79872 43.10006,-37.8982 50.41576,-40.01251 0,0 23.95551,-2.51937 6.402,60.01876 l -39.21226,22.407 z"
       id="path3976"
       inkscape:connector-curvature="0"
       sodipodi:nodetypes="ccccc" />
    <path
       style="fill:#d38d5f;stroke:#000000;stroke-width:1px;stroke-linecap:butt;stroke-linejoin:miter;stroke-opacity:1"
       d="m 498.5558,451.37437 c 6.59842,-9.95466 14.30786,-14.35422 22.407,-16.80525 0,0 20.92025,-0.83356 3.201,55.21726 2.24792,12.25494 -10.78997,12.28123 -23.20725,12.804 z"
       id="path3978"
       inkscape:connector-curvature="0"
       sodipodi:nodetypes="ccccc" />
    <path
       style="fill:#d3bc5f;stroke:#000000;stroke-width:2;stroke-linecap:butt;stroke-linejoin:miter;stroke-miterlimit:4;stroke-opacity:1;stroke-dasharray:none"
       d="m 371.48857,796.87537 31.97122,0.56587 78.29076,-68.38009 c 14.18186,5.45456 64.48112,-137.57492 50.18136,-148.39439 -13.58316,-10.27728 -100.59712,30.75763 -111.00037,50.76388"
       id="path4058"
       inkscape:connector-curvature="0"
       sodipodi:nodetypes="cccsc" />
    <path
       style="fill:#d3bc5f;stroke:#000000;stroke-width:2;stroke-linecap:butt;stroke-linejoin:miter;stroke-miterlimit:4;stroke-opacity:1;stroke-dasharray:none"
       d="m 296.98485,751.33672 c -7.70057,-18.952 -9.91511,-45.48066 -7.2549,-65.37455 -5.07223,-26.62273 -3.19494,-50.6851 9.80566,-70.6494 9.34214,-25.73009 31.85029,-59.05466 55.85425,-89.16827 21.41522,22.1633 60.62403,57.14298 58.45754,89.48614 14.05581,29.43343 7.43659,56.36697 2.50877,86.74958 l -6.23424,33.80422 -9.09137,45.45686 c -19.03811,9.40095 -38.83192,24.07623 -71.78211,5.65301 -11.70185,1.36532 -23.64341,-17.11823 -32.2636,-35.95759 z"
       id="path3934"
       inkscape:connector-curvature="0"
       sodipodi:nodetypes="cccccccccc" />
    <g
       id="g3174">
      <path
         sodipodi:nodetypes="cc"
         inkscape:connector-curvature="0"
         id="path3990"
         d="m 516.63224,594.57962 c -27.39049,17.89137 -56.01196,23.47302 -82.05003,54.88864"
         style="fill:none;stroke:#000000;stroke-width:1px;stroke-linecap:butt;stroke-linejoin:miter;stroke-opacity:1" />
      <path
         sodipodi:nodetypes="cc"
         inkscape:connector-curvature="0"
         id="path3992"
         d="m 517.1981,600.8041 c -19.60191,15.53279 -39.85323,28.14328 -56.58622,56.58623"
         style="fill:none;stroke:#000000;stroke-width:1px;stroke-linecap:butt;stroke-linejoin:miter;stroke-opacity:1" />
      <path
         inkscape:connector-curvature="0"
         id="path3994"
         d="m 515.50052,604.76514 -43.00554,62.81071"
         style="fill:none;stroke:#000000;stroke-width:1px;stroke-linecap:butt;stroke-linejoin:miter;stroke-opacity:1" />
      <path
         sodipodi:nodetypes="cc"
         inkscape:connector-curvature="0"
         id="path3996"
         d="m 524.02866,598.69461 -49.83609,86.42297"
         style="fill:none;stroke:#000000;stroke-width:1px;stroke-linecap:butt;stroke-linejoin:miter;stroke-opacity:1" />
      <path
         sodipodi:nodetypes="cc"
         inkscape:connector-curvature="0"
         id="path3998"
         d="m 527.42384,601.19245 c 0,0 -35.68954,89.58375 -38.51885,89.01789"
         style="fill:none;stroke:#000000;stroke-width:1px;stroke-linecap:butt;stroke-linejoin:miter;stroke-opacity:1" />
    </g>
    <g
       id="g3218">
      <path
         inkscape:connector-curvature="0"
         id="path4000"
         d="m 417.60635,492.15855 -39.61036,50.36174"
         style="fill:none;stroke:#000000;stroke-width:1px;stroke-linecap:butt;stroke-linejoin:miter;stroke-opacity:1" />
      <path
         inkscape:connector-curvature="0"
         id="path4002"
         d="m 427.79187,491.02682 c 0,0 -43.00554,47.53243 -37.34691,60.54727"
         style="fill:none;stroke:#000000;stroke-width:1px;stroke-linecap:butt;stroke-linejoin:miter;stroke-opacity:1" />
      <path
         inkscape:connector-curvature="0"
         id="path4004"
         d="m 435.14808,487.63165 c 0,0 -34.5176,57.15209 -29.9907,78.08899"
         style="fill:none;stroke:#000000;stroke-width:1px;stroke-linecap:butt;stroke-linejoin:miter;stroke-opacity:1" />
      <path
         inkscape:connector-curvature="0"
         id="path4006"
         d="m 437.41152,484.80234 c 0,0 -22.06862,86.57692 -14.71241,98.46003"
         style="fill:none;stroke:#000000;stroke-width:1px;stroke-linecap:butt;stroke-linejoin:miter;stroke-opacity:1" />
      <path
         inkscape:connector-curvature="0"
         id="path4008"
         d="m 443.63601,497.25131 c 0,0 0,71.86451 0.56586,80.35244"
         style="fill:none;stroke:#000000;stroke-width:1px;stroke-linecap:butt;stroke-linejoin:miter;stroke-opacity:1" />
    </g>
    <g
       id="g3225">
      <path
         inkscape:connector-curvature="0"
         id="path4010"
         d="m 510.40776,510.832 -40.74209,41.87381"
         style="fill:none;stroke:#000000;stroke-width:1px;stroke-linecap:butt;stroke-linejoin:miter;stroke-opacity:1" />
      <path
         inkscape:connector-curvature="0"
         id="path4012"
         d="m 517.76396,514.79304 -38.47863,48.09829"
         style="fill:none;stroke:#000000;stroke-width:1px;stroke-linecap:butt;stroke-linejoin:miter;stroke-opacity:1" />
      <path
         inkscape:connector-curvature="0"
         id="path4014"
         d="m 520.02741,515.92476 -35.64932,65.07416"
         style="fill:none;stroke:#000000;stroke-width:1px;stroke-linecap:butt;stroke-linejoin:miter;stroke-opacity:1" />
      <path
         inkscape:connector-curvature="0"
         id="path4016"
         d="m 523.98845,518.18821 -24.89794,65.64002"
         style="fill:none;stroke:#000000;stroke-width:1px;stroke-linecap:butt;stroke-linejoin:miter;stroke-opacity:1" />
    </g>
    <g
       id="g3231">
      <path
         inkscape:connector-curvature="0"
         id="path4018"
         d="m 471.92912,470.08992 -22.63449,30.55656"
         style="fill:none;stroke:#000000;stroke-width:1px;stroke-linecap:butt;stroke-linejoin:miter;stroke-opacity:1" />
      <path
         inkscape:connector-curvature="0"
         id="path4020"
         d="m 480.98292,464.4313 c 0,0 -25.4638,40.17622 -24.33208,44.13725"
         style="fill:none;stroke:#000000;stroke-width:1px;stroke-linecap:butt;stroke-linejoin:miter;stroke-opacity:1" />
      <path
         inkscape:connector-curvature="0"
         id="path4022"
         d="m 490.03671,463.29957 c 0,0 -24.33207,50.92761 -20.9369,54.88864"
         style="fill:none;stroke:#000000;stroke-width:1px;stroke-linecap:butt;stroke-linejoin:miter;stroke-opacity:1" />
      <path
         inkscape:connector-curvature="0"
         id="path4024"
         d="m 495.12947,463.29957 c 0,0 -7.92207,44.13726 -7.92207,47.53243"
         style="fill:none;stroke:#000000;stroke-width:1px;stroke-linecap:butt;stroke-linejoin:miter;stroke-opacity:1" />
    </g>
    <g
       id="g3237">
      <path
         inkscape:connector-curvature="0"
         id="path4026"
         d="m 513.80293,449.71888 -9.61966,13.58069"
         style="fill:none;stroke:#000000;stroke-width:1px;stroke-linecap:butt;stroke-linejoin:miter;stroke-opacity:1" />
      <path
         inkscape:connector-curvature="0"
         id="path4028"
         d="m 521.725,449.15302 -19.80518,46.96656"
         style="fill:none;stroke:#000000;stroke-width:1px;stroke-linecap:butt;stroke-linejoin:miter;stroke-opacity:1" />
      <path
         inkscape:connector-curvature="0"
         id="path4030"
         d="m 527.38362,452.54819 -15.84414,39.61036"
         style="fill:none;stroke:#000000;stroke-width:1px;stroke-linecap:butt;stroke-linejoin:miter;stroke-opacity:1" />
    </g>
    <path
       style="fill:#d3bc5f;fill-opacity:1;stroke:#000000;stroke-width:1px;stroke-linecap:butt;stroke-linejoin:miter;stroke-opacity:1"
       d="m 198.05179,718.50345 c 3.6e-4,9.26915 -54.79444,-35.84014 -67.33761,-74.12795 -13.8583,-42.30223 -36.68909,-88.67265 -37.346908,-96.76245 -1.49874,-18.43139 88.663648,18.74015 106.947968,28.29311 12.73861,6.65551 61.67898,85.4452 57.15209,92.80141"
       id="path4056"
       inkscape:connector-curvature="0"
       sodipodi:nodetypes="csssc" />
    <g
       id="g3193">
      <path
         inkscape:connector-curvature="0"
         id="path4032"
         d="m 111.47486,578.73547 c 0,0 33.95174,87.14279 56.58623,94.499"
         style="fill:none;stroke:#000000;stroke-width:1px;stroke-linecap:butt;stroke-linejoin:miter;stroke-opacity:1" />
      <path
         inkscape:connector-curvature="0"
         id="path4034"
         d="m 104.11866,551.00822 74.12795,116.56763"
         style="fill:none;stroke:#000000;stroke-width:1px;stroke-linecap:butt;stroke-linejoin:miter;stroke-opacity:1" />
      <path
         inkscape:connector-curvature="0"
         id="path4036"
         d="m 109.77728,551.00822 c 0,0 67.90347,58.84968 63.37657,82.61589"
         style="fill:none;stroke:#000000;stroke-width:1px;stroke-linecap:butt;stroke-linejoin:miter;stroke-opacity:1" />
      <path
         inkscape:connector-curvature="0"
         id="path4038"
         d="m 109.77728,543.65201 c 0,0 100.15762,91.66969 95.06486,100.72349"
         style="fill:none;stroke:#000000;stroke-width:1px;stroke-linecap:butt;stroke-linejoin:miter;stroke-opacity:1" />
      <path
         inkscape:connector-curvature="0"
         id="path4040"
         d="m 119.39694,543.08615 c 0,0 94.49899,67.90347 92.23554,79.78658"
         style="fill:none;stroke:#000000;stroke-width:1px;stroke-linecap:butt;stroke-linejoin:miter;stroke-opacity:1" />
    </g>
    <path
       style="fill:#e9ddaf;stroke:#000000;stroke-width:1px;stroke-linecap:butt;stroke-linejoin:miter;stroke-opacity:1"
       d="m 289.72148,724.72794 c 0,0 -31.68829,22.06862 -41.30795,18.67345 -9.61966,-3.39517 -45.83484,-22.63449 -45.83484,-22.63449 0,0 32.82001,-41.87381 41.8738,-43.57139 9.0538,-1.69759 35.08346,-22.63449 40.74209,-22.06863 5.65862,0.56586 4.5269,69.60106 4.5269,69.60106 z"
       id="path4054"
       inkscape:connector-curvature="0" />
    <path
       style="fill:#d38d5f;stroke:#000000;stroke-width:1px;stroke-linecap:butt;stroke-linejoin:miter;stroke-opacity:1"
       d="m 140.84401,451.37437 c -42.608852,-18.81832 -7.72662,-44.91435 -6.55596,-62.33907 0,0 37.76572,-20.08668 70.57597,63.13932 13.82936,10.38279 15.21155,26.73501 -9.20288,49.61551 z"
       id="path4062"
       inkscape:connector-curvature="0"
       sodipodi:nodetypes="ccccc" />
    <path
       style="fill:#d38d5f;stroke:#000000;stroke-width:1px;stroke-linecap:butt;stroke-linejoin:miter;stroke-opacity:1"
       d="m 93.629259,537.00113 c 0,0 -29.521534,-92.41723 -9.603001,-98.43076 25.144352,-7.59124 106.985792,27.2419 111.234762,56.81776 l -23.23889,73.72769 z"
       id="path4060"
       inkscape:connector-curvature="0"
       sodipodi:nodetypes="csccc" />
    <path
       style="fill:#d3bc5f;stroke:#000000;stroke-width:1px;stroke-linecap:butt;stroke-linejoin:miter;stroke-opacity:1"
       d="m 181.07592,588.92099 c -24.3808,-76.25367 12.91306,-138.22787 29.9907,-127.88487 18.17926,-0.60592 47.41895,19.56999 54.88864,58.28382 20.80804,24.14345 26.62176,50.55036 40.74208,74.69381 l -11.31724,53.19106 -38.47864,18.10759 z"
       id="path4052"
       inkscape:connector-curvature="0"
       sodipodi:nodetypes="ccccccc" />
    <path
       style="fill:#d38d5f;stroke:#000000;stroke-width:1px;stroke-linecap:butt;stroke-linejoin:miter;stroke-opacity:1"
       d="m 85.626758,435.36937 c -7.982248,-21.84557 -10.956453,-42.78058 -2.40075,-61.61925 0,0 54.417002,28.00875 55.217252,47.21475 l -5.60175,26.40825 z"
       id="path4064"
       inkscape:connector-curvature="0"
       sodipodi:nodetypes="ccccc" />
    <path
       style="fill:#d38d5f;stroke:#000000;stroke-width:1px;stroke-linecap:butt;stroke-linejoin:miter;stroke-opacity:1"
       d="m 80.025008,369.74887 0,-27.20851 c 0,0 61.619252,29.60926 58.418252,48.01501 l -6.402,14.4045 z"
       id="path4066"
       inkscape:connector-curvature="0" />
    <path
       style="fill:none;stroke:#000000;stroke-width:1px;stroke-linecap:butt;stroke-linejoin:miter;stroke-opacity:1"
       d="M 157.87557,517.05649 C 136.3728,514.22718 95.064859,442.92853 95.064859,442.92853 l 71.298641,60.54726"
       id="path4070"
       inkscape:connector-curvature="0" />
    <g
       id="g3200">
      <path
         inkscape:connector-curvature="0"
         id="path4068"
         d="m 113.17245,527.80787 c -15.27828,-8.48793 -23.200351,-81.48416 -23.200351,-81.48416 0,0 26.029661,74.69381 45.268981,79.22071"
         style="fill:none;stroke:#000000;stroke-width:1px;stroke-linecap:butt;stroke-linejoin:miter;stroke-opacity:1" />
      <path
         inkscape:connector-curvature="0"
         id="path4072"
         d="m 103.55279,446.32371 71.29865,40.17622"
         style="fill:none;stroke:#000000;stroke-width:1px;stroke-linecap:butt;stroke-linejoin:miter;stroke-opacity:1" />
    </g>
    <g
       id="g3204">
      <path
         inkscape:connector-curvature="0"
         id="path4074"
         d="m 142.03143,399.923 c 0,0 15.84414,44.13726 13.58069,52.05933"
         style="fill:none;stroke:#000000;stroke-width:1px;stroke-linecap:butt;stroke-linejoin:miter;stroke-opacity:1" />
      <path
         inkscape:connector-curvature="0"
         id="path4076"
         d="m 147.69005,406.14749 c 0,0 29.9907,49.23001 29.42484,57.15208"
         style="fill:none;stroke:#000000;stroke-width:1px;stroke-linecap:butt;stroke-linejoin:miter;stroke-opacity:1" />
      <path
         inkscape:connector-curvature="0"
         id="path4078"
         d="m 153.91453,402.75231 c 0,0 37.91278,47.53243 36.78105,57.71795"
         style="fill:none;stroke:#000000;stroke-width:1px;stroke-linecap:butt;stroke-linejoin:miter;stroke-opacity:1" />
    </g>
    <g
       id="g3209">
      <path
         inkscape:connector-curvature="0"
         id="path4080"
         d="m 87.142788,395.96196 c 0,0 6.224484,32.82002 11.883107,37.91278"
         style="fill:none;stroke:#000000;stroke-width:1px;stroke-linecap:butt;stroke-linejoin:miter;stroke-opacity:1" />
      <path
         inkscape:connector-curvature="0"
         id="path4082"
         d="m 109.77728,432.74301 c -7.35621,-7.35621 -19.805181,-48.09829 -19.805181,-48.09829 0,0 29.990701,43.00553 35.083461,46.96657"
         style="fill:none;stroke:#000000;stroke-width:1px;stroke-linecap:butt;stroke-linejoin:miter;stroke-opacity:1" />
    </g>
    <path
       style="fill:#d38d5f;stroke:#000000;stroke-width:1px;stroke-linecap:butt;stroke-linejoin:miter;stroke-opacity:1"
       d="m 92.80141,378.42023 36.21518,40.17623"
       id="path4084"
       inkscape:connector-curvature="0" />
    <g
       id="g3213">
      <path
         inkscape:connector-curvature="0"
         id="path4086"
         d="m 86.576925,352.95643 17.541735,25.4638"
         style="fill:none;stroke:#000000;stroke-width:1px;stroke-linecap:butt;stroke-linejoin:miter;stroke-opacity:1" />
      <path
         inkscape:connector-curvature="0"
         id="path4088"
         d="m 99.025895,359.74678 20.936905,29.9907"
         style="fill:none;stroke:#000000;stroke-width:1px;stroke-linecap:butt;stroke-linejoin:miter;stroke-opacity:1" />
      <path
         inkscape:connector-curvature="0"
         id="path4090"
         d="m 112.60659,367.10299 22.63449,33.38587"
         style="fill:none;stroke:#000000;stroke-width:1px;stroke-linecap:butt;stroke-linejoin:miter;stroke-opacity:1" />
    </g>
    <path
       style="fill:#00aa44;stroke:#000000;stroke-width:1px;stroke-linecap:butt;stroke-linejoin:miter;stroke-opacity:1"
       d="m 207.67145,352.39057 1.13172,101.28934 c 0,0 35.64932,23.76622 33.95174,30.55657 -1.69759,6.79034 -6.79035,-49.79588 -6.79035,-49.79588 3.34337,-3.34337 -5.9797,-80.32195 2.26345,-78.08899 11.04577,2.99215 -30.55656,-3.96104 -30.55656,-3.96104 z"
       id="path4092"
       inkscape:connector-curvature="0"
       sodipodi:nodetypes="ccscsc" />
    <path
       style="fill:none;stroke:#000000;stroke-width:1px;stroke-linecap:butt;stroke-linejoin:miter;stroke-opacity:1"
       d="m 211.63248,442.92853 26.02967,-1.69758"
       id="path4094"
       inkscape:connector-curvature="0" />
    <path
       style="fill:#005522;stroke:#000000;stroke-width:1px;stroke-linecap:butt;stroke-linejoin:miter;stroke-opacity:1"
       d="m 380.25944,263.5502 c 0,0 -60.55701,1.78302 -72.99623,12.44897 -11.44489,9.81337 99.02589,24.89794 99.02589,24.89794 z"
       id="path4096"
       inkscape:connector-curvature="0"
       sodipodi:nodetypes="cscc" />
    <path
       style="fill:#005522;stroke:#000000;stroke-width:1px;stroke-linecap:butt;stroke-linejoin:miter;stroke-opacity:1"
       d="m 385.3522,307.68745 c 0,0 -52.10687,15.96539 -75.25968,65.64002 -6.80159,14.59289 74.12795,-19.80517 74.12795,-19.80517 l 34.32343,-39.47306 z"
       id="path4098"
       inkscape:connector-curvature="0"
       sodipodi:nodetypes="csccc" />
    <path
       style="fill:#005522;stroke:#000000;stroke-width:1px;stroke-linecap:butt;stroke-linejoin:miter;stroke-opacity:1"
       d="m 441.93842,398.79128 c 0,0 -32.88814,-56.18379 -13.01483,-84.94863 11.7745,-17.04254 32.02231,99.37499 13.01483,84.94863 z"
       id="path4100"
       inkscape:connector-curvature="0"
       sodipodi:nodetypes="csc" />
    <path
       style="fill:none;stroke:#000000;stroke-width:1px;stroke-linecap:butt;stroke-linejoin:miter;stroke-opacity:1"
       d="m 430.13442,311.73074 14.00437,82.42575"
       id="path4102"
       inkscape:connector-curvature="0" />
    <path
       style="fill:none;stroke:#000000;stroke-width:1px;stroke-linecap:butt;stroke-linejoin:miter;stroke-opacity:1"
       d="m 313.29791,373.75012 87.22725,-64.02001"
       id="path4104"
       inkscape:connector-curvature="0" />
    <path
       style="fill:none;stroke:#000000;stroke-width:1px;stroke-linecap:butt;stroke-linejoin:miter;stroke-opacity:1"
       d="m 312.49766,277.31998 25.20787,-0.80025 c 0,0 28.00876,-7.20225 31.60988,0.80025 3.60113,8.0025 24.40763,3.201 24.40763,3.201"
       id="path4106"
       inkscape:connector-curvature="0" />
    <path
       style="fill:#00aa44;stroke:#000000;stroke-width:1px;stroke-linecap:butt;stroke-linejoin:miter;stroke-opacity:1"
       d="m 453.82153,324.66332 c 0,0 11.88311,59.9814 0.56586,77.52313 -11.31724,17.54173 2.82931,19.80518 1.13173,29.42484 -1.69759,9.61966 -9.61966,41.30794 -9.61966,41.30794 l 32.25415,-19.23932 2.26345,-46.4007 3.96103,-86.57693 z"
       id="path4108"
       inkscape:connector-curvature="0" />
    <path
       style="fill:#00aa44;stroke:#000000;stroke-width:1px;stroke-linecap:butt;stroke-linejoin:miter;stroke-opacity:1"
       d="m 582.83812,322.39987 c 0,0 -4.52689,121.09452 -8.48793,122.22625 -3.96104,1.13172 -15.27828,128.45073 -15.27828,128.45073 l -1.69759,121.66039 39.0445,-21.50277 c 1.20948,-74.12796 -1.58503,-148.25591 7.92207,-222.38387 l 7.92207,-128.45073 z"
       id="path4110"
       inkscape:connector-curvature="0"
       sodipodi:nodetypes="cscccccc" />
    <path
       style="fill:#2aff2a;stroke:#000000;stroke-width:1px;stroke-linecap:butt;stroke-linejoin:miter;stroke-opacity:1"
       d="m 624.14607,433.87474 -3.96104,18.10759 13.01484,43.57139 8.48793,-33.38587 c 0,0 -7.35621,-31.12243 -17.54173,-28.29311 z"
       id="path4646"
       inkscape:connector-curvature="0" />
    <path
       style="fill:none;stroke:#000000;stroke-width:1px;stroke-linecap:butt;stroke-linejoin:miter;stroke-opacity:1"
       d="m 625.56073,437.55284 c 0,0 8.77086,38.47863 11.31724,41.30795"
       id="path4114"
       inkscape:connector-curvature="0" />
    <path
       style="fill:#2aff2a;stroke:#000000;stroke-width:1px;stroke-linecap:butt;stroke-linejoin:miter;stroke-opacity:1"
       d="m 630.37055,427.65025 24.89794,12.44897 44.13726,0 c 0,0 -14.14656,-26.02966 -30.55656,-24.89794 -16.41001,1.13173 -38.47864,12.44897 -38.47864,12.44897 z"
       id="path4648"
       inkscape:connector-curvature="0" />
    <path
       style="fill:none;stroke:#000000;stroke-width:1px;stroke-linecap:butt;stroke-linejoin:miter;stroke-opacity:1"
       d="m 634.33159,423.97215 58.56674,9.05379"
       id="path4116"
       inkscape:connector-curvature="0" />
    <path
       style="fill:#2aff2a;stroke:#000000;stroke-width:1px;stroke-linecap:butt;stroke-linejoin:miter;stroke-opacity:1"
       d="m 637.1609,419.16232 50.36174,-33.95174 -37.91277,3.39518 c 0,0 -20.37104,18.67345 -19.80518,27.72725 0.56586,9.05379 7.35621,2.82931 7.35621,2.82931 z"
       id="path4650"
       inkscape:connector-curvature="0" />
    <path
       style="fill:none;stroke:#000000;stroke-width:1px;stroke-linecap:butt;stroke-linejoin:miter;stroke-opacity:1"
       d="m 636.31211,413.22076 c 0,0 38.1957,-33.38587 49.51295,-29.70777"
       id="path4118"
       inkscape:connector-curvature="0" />
    <path
       style="fill:none;stroke:#000000;stroke-width:1px;stroke-linecap:butt;stroke-linejoin:miter;stroke-opacity:1"
       d="M 316.88286,766.03588 z"
       id="path4634"
       inkscape:connector-curvature="0" />
    <path
       style="fill:none;stroke:#000000;stroke-width:1px;stroke-linecap:butt;stroke-linejoin:miter;stroke-opacity:1"
       d="M 371.20564,742.26967 z"
       id="path4636"
       inkscape:connector-curvature="0" />
    <path
       style="fill:#e9ddaf;stroke:#000000;stroke-width:1px;stroke-linecap:butt;stroke-linejoin:miter;stroke-opacity:1"
       d="m 294.49203,714.65665 c 0,0 48.015,-8.80275 60.01875,-0.80025 12.00376,8.0025 76.82401,30.4095 80.02501,46.4145 3.201,16.00501 -30.4095,35.21101 -30.4095,35.21101 l -65.62051,1.6005 c 0,0 -36.8115,-13.60425 -37.61175,-26.40825 -0.80025,-12.80401 -6.402,-56.01751 -6.402,-56.01751 z"
       id="path4120"
       inkscape:connector-curvature="0" />
    <path
       style="fill:none;stroke:#000000;stroke-width:1px;stroke-linecap:butt;stroke-linejoin:miter;stroke-opacity:1"
       d="m 359.8884,549.31064 15.27828,107.51383"
       id="path3986"
       inkscape:connector-curvature="0" />
    <g
       id="g3169">
      <path
         inkscape:connector-curvature="0"
         id="path3984"
         d="m 331.02942,633.05825 c -6.79035,-9.0538 24.89794,-90.53796 24.89794,-90.53796 0,0 -14.71242,99.02589 -7.92207,108.64555"
         style="fill:none;stroke:#000000;stroke-width:1px;stroke-linecap:butt;stroke-linejoin:miter;stroke-opacity:1" />
      <path
         inkscape:connector-curvature="0"
         id="path3982"
         d="m 352.53219,536.86167 c 0,0 -47.53243,87.70865 -41.87381,99.02589"
         style="fill:none;stroke:#000000;stroke-width:1px;stroke-linecap:butt;stroke-linejoin:miter;stroke-opacity:1" />
      <path
         sodipodi:nodetypes="cc"
         inkscape:connector-curvature="0"
         id="path3988"
         d="m 364.98116,541.38856 c 0,0 41.87381,78.089 36.78104,117.13349"
         style="fill:none;stroke:#000000;stroke-width:1px;stroke-linecap:butt;stroke-linejoin:miter;stroke-opacity:1" />
    </g>
    <g
       id="g3186">
      <path
         sodipodi:nodetypes="cc"
         inkscape:connector-curvature="0"
         id="path4042"
         d="m 209.70051,484.29335 c -6.56018,26.49066 -6.94156,59.65879 -5.9901,87.65178"
         style="fill:none;stroke:#000000;stroke-width:1px;stroke-linecap:butt;stroke-linejoin:miter;stroke-opacity:1" />
      <path
         sodipodi:nodetypes="cc"
         inkscape:connector-curvature="0"
         id="path4044"
         d="m 215.35913,482.69285 c 0,0 -6.55596,92.64745 4.76129,100.00366"
         style="fill:none;stroke:#000000;stroke-width:1px;stroke-linecap:butt;stroke-linejoin:miter;stroke-opacity:1" />
      <path
         sodipodi:nodetypes="cc"
         inkscape:connector-curvature="0"
         id="path4046"
         d="m 217.81675,478.92599 c 0,0 17.01609,110.56087 30.59678,116.21949"
         style="fill:none;stroke:#000000;stroke-width:1px;stroke-linecap:butt;stroke-linejoin:miter;stroke-opacity:1" />
      <path
         sodipodi:nodetypes="cc"
         inkscape:connector-curvature="0"
         id="path4048"
         d="m 220.27438,480.52649 37.19295,89.72105"
         style="fill:none;stroke:#000000;stroke-width:1px;stroke-linecap:butt;stroke-linejoin:miter;stroke-opacity:1" />
      <path
         sodipodi:nodetypes="cc"
         inkscape:connector-curvature="0"
         id="path4050"
         d="m 224.99545,481.98969 47.75016,85.9944"
         style="fill:none;stroke:#000000;stroke-width:1px;stroke-linecap:butt;stroke-linejoin:miter;stroke-opacity:1" />
    </g>
  </g>
</svg>
