<?xml version="1.0" encoding="UTF-8" standalone="no"?>
<!-- Created with Inkscape (http://www.inkscape.org/) -->

<svg
   xmlns:dc="http://purl.org/dc/elements/1.1/"
   xmlns:cc="http://creativecommons.org/ns#"
   xmlns:rdf="http://www.w3.org/1999/02/22-rdf-syntax-ns#"
   xmlns:svg="http://www.w3.org/2000/svg"
   xmlns="http://www.w3.org/2000/svg"
   xmlns:xlink="http://www.w3.org/1999/xlink"
   xmlns:sodipodi="http://sodipodi.sourceforge.net/DTD/sodipodi-0.dtd"
   xmlns:inkscape="http://www.inkscape.org/namespaces/inkscape"
   width="64"
   height="64"
   viewBox="0 0 64 64"
   id="svg4341"
   version="1.1"
   inkscape:version="0.91 r13725"
   sodipodi:docname="吉祥寺.svg">
  <defs
     id="defs4343" />
  <sodipodi:namedview
     id="base"
     pagecolor="#ffffff"
     bordercolor="#666666"
     borderopacity="1.0"
     inkscape:pageopacity="0.0"
     inkscape:pageshadow="2"
     inkscape:zoom="3.6020833"
     inkscape:cx="58.533294"
     inkscape:cy="2.9021609"
     inkscape:document-units="px"
     inkscape:current-layer="layer1"
     showgrid="false"
     units="px"
     width="64px"
     inkscape:window-width="1366"
     inkscape:window-height="705"
     inkscape:window-x="-8"
     inkscape:window-y="-8"
     inkscape:window-maximized="1" />
  <metadata
     id="metadata4346">
    <rdf:RDF>
      <cc:Work
         rdf:about="">
        <dc:format>image/svg+xml</dc:format>
        <dc:type
           rdf:resource="http://purl.org/dc/dcmitype/StillImage" />
        <dc:title></dc:title>
      </cc:Work>
    </rdf:RDF>
  </metadata>
  <g
     inkscape:label="レイヤー 1"
     inkscape:groupmode="layer"
     id="layer1"
     transform="translate(0,-988.3622)">
    <g
       id="layer1-8"
       inkscape:label="レイヤー 1"
       transform="matrix(0.13706861,0,0,0.13706861,-19.906306,930.3498)"
       inkscape:export-xdpi="90"
       inkscape:export-ydpi="90"
       inkscape:export-filename="\\Dns03\共通\Webチーム\Webサイト開発業務\北九州観光おすすめマップ(井本)\00.要件定義\提案画像\アイコン\地図上用のアイコン\吉祥寺.png">
      <path
         inkscape:connector-curvature="0"
         id="path3347"
         d="m 257.5889,460.41281 c 0,0 24.24366,-13.13198 38.89087,-0.50507 14.64721,12.6269 -40.91118,13.13198 -38.89087,0.50507 z"
         style="fill:#2ca02c;fill-rule:evenodd;stroke:none;stroke-width:1px;stroke-linecap:butt;stroke-linejoin:miter;stroke-opacity:1" />
      <use
         transform="matrix(0.50640488,0.86229582,-0.86229582,0.50640488,518.85966,9.2964767)"
         height="100%"
         width="100%"
         id="use3351"
         xlink:href="#path3347"
         y="0"
         x="0" />
      <use
         style="fill:#00aa44"
         x="0"
         y="0"
         xlink:href="#path3347"
         id="use3353"
         width="100%"
         height="100%"
         transform="matrix(0.50640488,0.86229582,-0.86229582,0.50640488,518.85966,9.2964767)" />
      <use
         style="fill:#00aa44;stroke:none"
         transform="matrix(-0.41562909,0.90953419,-0.90953419,-0.41562909,772.79992,423.73556)"
         height="100%"
         width="100%"
         id="use3357"
         xlink:href="#path3347"
         y="0"
         x="0" />
      <path
         inkscape:connector-curvature="0"
         id="path3359"
         d="m 257.5889,494.758 -4.54569,30.05204 -2.0203,25.75889 0.25254,27.52665 5.80837,36.61803 15.15229,38.63834 12.62691,21.71828 1.26269,-0.75762 -8.08122,-14.14213 -7.07107,-13.13198 -6.56599,-15.15229 -4.54569,-17.42513 -3.28299,-22.98097 -2.52538,-18.43529 2.52538,-44.69925 6.56599,-30.05204 z"
         style="fill:#8dd35f;fill-rule:evenodd;stroke:none;stroke-width:1px;stroke-linecap:butt;stroke-linejoin:miter;stroke-opacity:1" />
      <path
         sodipodi:nodetypes="cccsccc"
         inkscape:connector-curvature="0"
         id="path3361"
         d="m 260.74934,506.81855 8.96139,5.36458 c 2.52538,-2.86807 5.05076,-1.56047 7.57614,-2.27284 0.67814,0.0972 -0.7613,6.16971 -1.26269,8.83883 -0.67242,3.57955 -6.31345,-4.29315 -6.31345,-4.29315 l -8.83883,-3.53553 z"
         style="fill:#8dd35f;fill-rule:evenodd;stroke:none;stroke-width:1px;stroke-linecap:butt;stroke-linejoin:miter;stroke-opacity:1" />
      <path
         sodipodi:nodetypes="ccccccc"
         inkscape:connector-curvature="0"
         id="path3363"
         d="m 254.07131,526.4732 c -2.84574,-0.49773 -6.33081,2.20121 -9.61439,3.89268 -2.98575,-2.20439 -6.19168,-3.08769 -9.84899,-1.26269 l 3.03046,7.3236 c 2.35702,1.50755 4.71404,-2.55639 7.07106,-4.04061 l 7.32361,-1.76777 z"
         style="fill:#8dd35f;fill-rule:evenodd;stroke:none;stroke-width:1px;stroke-linecap:butt;stroke-linejoin:miter;stroke-opacity:1" />
      <path
         sodipodi:nodetypes="ccccccc"
         inkscape:connector-curvature="0"
         id="path3365"
         d="m 255.56859,545.7707 5.80838,1.9284 9.84899,0.84952 -3.03046,8.83884 -7.82868,-7.07107 -4.79823,-1.01015 z"
         style="fill:#8dd35f;fill-rule:evenodd;stroke:none;stroke-width:1px;stroke-linecap:butt;stroke-linejoin:miter;stroke-opacity:1" />
      <path
         sodipodi:nodetypes="ccscccc"
         inkscape:connector-curvature="0"
         id="path3367"
         d="m 251.51529,557.06095 -7.45885,4.48441 c 0,0 -8.43836,0.13525 -8.43836,2.15555 0,2.02031 4.54569,8.08122 4.54569,8.08122 l 5.55584,-7.57614 4.79822,-1.76777 z"
         style="fill:#8dd35f;fill-rule:evenodd;stroke:none;stroke-width:1px;stroke-linecap:butt;stroke-linejoin:miter;stroke-opacity:1" />
      <path
         sodipodi:nodetypes="cccsccc"
         inkscape:connector-curvature="0"
         id="path3369"
         d="m 254.6451,582.96778 10.77248,3.46156 6.80584,-1.84173 c 0,0 2.79061,8.40772 0.51777,8.9128 -2.27285,0.50508 -7.82868,-4.54569 -7.82868,-4.54569 l -9.86694,-1.41062 z"
         style="fill:#8dd35f;fill-rule:evenodd;stroke:none;stroke-width:1px;stroke-linecap:butt;stroke-linejoin:miter;stroke-opacity:1" />
      <path
         sodipodi:nodetypes="ccccccc"
         inkscape:connector-curvature="0"
         id="path3371"
         d="m 253.31369,587.00839 -8.09916,9.52248 -7.82868,3.53553 6.31345,8.08122 c 2.41721,-1.27123 3.18896,-3.95285 2.27285,-8.08122 l 8.17313,-8.66026 z"
         style="fill:#8dd35f;fill-rule:evenodd;stroke:none;stroke-width:1px;stroke-linecap:butt;stroke-linejoin:miter;stroke-opacity:1" />
      <path
         sodipodi:nodetypes="cccsccc"
         inkscape:connector-curvature="0"
         id="path3373"
         d="m 258.59905,604.35955 8.5863,4.04061 c 2.52538,-3.66832 5.05076,-1.22339 7.57614,-1.51523 0,0 2.27285,9.09137 0.25254,9.09137 -2.0203,0 -6.81853,-5.80837 -6.81853,-5.80837 l -8.83883,-2.52538 z"
         style="fill:#8dd35f;fill-rule:evenodd;stroke:none;stroke-width:1px;stroke-linecap:butt;stroke-linejoin:miter;stroke-opacity:1" />
      <path
         sodipodi:nodetypes="ccccccc"
         inkscape:connector-curvature="0"
         id="path3375"
         d="m 258.48176,617.02978 -6.65791,9.89232 -5.34663,2.18619 c 0.0102,3.02024 1.62551,4.4354 3.283,5.80837 l 3.03045,-3.53553 6.31346,-10.10152 z"
         style="fill:#8dd35f;fill-rule:evenodd;stroke:none;stroke-width:1px;stroke-linecap:butt;stroke-linejoin:miter;stroke-opacity:1" />
      <path
         sodipodi:nodetypes="ccccccc"
         inkscape:connector-curvature="0"
         id="path3377"
         d="m 263.03116,626.44766 11.98287,2.78689 3.53553,0.12628 c -0.16836,1.93612 4.50922,3.2665 -0.50507,5.80837 -0.14448,1.55822 -2.61226,-1.06551 -4.29315,-2.27284 l -9.47018,-0.75762 z"
         style="fill:#8dd35f;fill-rule:evenodd;stroke:none;stroke-width:1px;stroke-linecap:butt;stroke-linejoin:miter;stroke-opacity:1" />
      <path
         sodipodi:nodetypes="cccccc"
         inkscape:connector-curvature="0"
         id="path3379"
         d="m 263.11936,630.69748 -2.5,6.74457 -2.02031,7.57614 1.26269,0.25254 5.42957,-9.72272 z"
         style="fill:#8dd35f;fill-rule:evenodd;stroke:none;stroke-width:1px;stroke-linecap:butt;stroke-linejoin:miter;stroke-opacity:1" />
      <path
         sodipodi:nodetypes="ccccc"
         inkscape:connector-curvature="0"
         id="path3381"
         d="m 269.837,647.4173 -3.6618,13.00572 3.03045,1.51523 2.02031,-10.85914 z"
         style="fill:#8dd35f;fill-rule:evenodd;stroke:none;stroke-width:1px;stroke-linecap:butt;stroke-linejoin:miter;stroke-opacity:1" />
      <path
         sodipodi:nodetypes="ccccc"
         inkscape:connector-curvature="0"
         id="path3383"
         d="m 269.78707,645.32395 13.42722,4.71683 -1.78572,0.89285 -10.5484,-3.03571 z"
         style="fill:#8dd35f;fill-rule:evenodd;stroke:none;stroke-width:1px;stroke-linecap:butt;stroke-linejoin:miter;stroke-opacity:1" />
      <path
         sodipodi:nodetypes="ccccc"
         inkscape:connector-curvature="0"
         id="path3385"
         d="m 279.42993,662.57141 8.24864,3.18365 -1.42857,1.96429 -5.57904,-2.67857 z"
         style="fill:#8dd35f;fill-rule:evenodd;stroke:none;stroke-width:1px;stroke-linecap:butt;stroke-linejoin:miter;stroke-opacity:1" />
      <path
         sodipodi:nodetypes="ccccc"
         inkscape:connector-curvature="0"
         id="path3387"
         d="m 278.20531,662.70666 -2.13388,11.44126 1.42857,0.53571 2.14286,-8.92857 z"
         style="fill:#8dd35f;fill-rule:evenodd;stroke:none;stroke-width:1px;stroke-linecap:butt;stroke-linejoin:miter;stroke-opacity:1" />
      <path
         inkscape:connector-curvature="0"
         id="path3389"
         d="m 275.17857,675.75506 c 0,0 -5.17857,5.53572 -4.46428,6.96429 0.71428,1.42857 2.5,2.32143 2.5,2.32143 l 3.03571,-1.78572 z"
         style="fill:#ccaaff;fill-rule:evenodd;stroke:none;stroke-width:1px;stroke-linecap:butt;stroke-linejoin:miter;stroke-opacity:1" />
      <path
         inkscape:connector-curvature="0"
         id="path3391"
         d="m 285,676.46935 6.07143,8.57143 2.14286,-2.32143 -6.42858,-7.5 z"
         style="fill:#ccaaff;fill-rule:evenodd;stroke:none;stroke-width:1px;stroke-linecap:butt;stroke-linejoin:miter;stroke-opacity:1" />
      <path
         sodipodi:nodetypes="ccccc"
         inkscape:connector-curvature="0"
         id="path3393"
         d="m 288.03571,668.07649 6.60715,2.67857 2.67857,-1.42857 -1.60714,-2.32143 c -2.77415,-2.00369 -5.37969,-2.15267 -7.67858,1.07143 z"
         style="fill:#ccaaff;fill-rule:evenodd;stroke:none;stroke-width:1px;stroke-linecap:butt;stroke-linejoin:miter;stroke-opacity:1" />
      <path
         inkscape:connector-curvature="0"
         id="path3395"
         d="m 265.35714,661.1122 -4.28571,7.14286 1.42857,2.67857 3.75,-1.60714 1.25,-6.96429 z"
         style="fill:#ccaaff;fill-rule:evenodd;stroke:none;stroke-width:1px;stroke-linecap:butt;stroke-linejoin:miter;stroke-opacity:1" />
      <path
         inkscape:connector-curvature="0"
         id="path3397"
         d="m 283.21429,652.00506 c 0,0 3.03571,3.92857 5.35714,3.57143 2.32143,-0.35714 4.28571,-1.96429 4.28571,-1.96429 l -3.03571,-3.03571 z"
         style="fill:#ccaaff;fill-rule:evenodd;stroke:none;stroke-width:1px;stroke-linecap:butt;stroke-linejoin:miter;stroke-opacity:1" />
      <path
         inkscape:connector-curvature="0"
         id="path3399"
         d="m 257.84144,645.52327 -5.3033,8.83883 4.29314,0.50508 z"
         style="fill:#ccaaff;fill-rule:evenodd;stroke:none;stroke-width:1px;stroke-linecap:butt;stroke-linejoin:miter;stroke-opacity:1" />
      <path
         inkscape:connector-curvature="0"
         id="path3401"
         d="m 279.30718,634.66413 c 0,0 5.05076,4.79822 8.5863,3.53553 3.53553,-1.26269 7.82868,-11.61675 7.82868,-11.61675 l -7.57615,0.75761 -9.09137,3.03046 z"
         style="fill:#ccaaff;fill-rule:evenodd;stroke:none;stroke-width:1px;stroke-linecap:butt;stroke-linejoin:miter;stroke-opacity:1" />
      <path
         inkscape:connector-curvature="0"
         id="path3403"
         d="m 245.46707,629.61336 -7.32361,3.283 -8.08122,1.01015 c 0,0 3.283,7.82868 5.3033,8.08122 2.02031,0.25254 7.32361,0.75762 7.32361,0.75762 l 5.80838,-7.57615 z"
         style="fill:#ccaaff;fill-rule:evenodd;stroke:none;stroke-width:1px;stroke-linecap:butt;stroke-linejoin:miter;stroke-opacity:1" />
      <path
         inkscape:connector-curvature="0"
         id="path3405"
         d="m 276.7818,615.72377 10.6066,0.75761 c 0,0 8.5863,-8.83883 5.80838,-13.8896 -2.77792,-5.05076 -17.93021,5.55584 -17.93021,5.55584 z"
         style="fill:#ccaaff;fill-rule:evenodd;stroke:none;stroke-width:1px;stroke-linecap:butt;stroke-linejoin:miter;stroke-opacity:1" />
      <path
         inkscape:connector-curvature="0"
         id="path3407"
         d="m 236.62823,600.82402 -16.16244,5.05076 9.59645,10.35406 12.62691,-6.81853 z"
         style="fill:#ccaaff;fill-rule:evenodd;stroke:none;stroke-width:1px;stroke-linecap:butt;stroke-linejoin:miter;stroke-opacity:1" />
      <path
         inkscape:connector-curvature="0"
         id="path3409"
         d="m 273.75134,592.99533 c 0,0 10.6066,2.52539 13.13198,-1.26269 2.52538,-3.78807 3.283,-12.6269 2.77792,-13.63706 -0.50507,-1.01015 -17.42513,6.06092 -17.42513,6.06092 z"
         style="fill:#ccaaff;fill-rule:evenodd;stroke:none;stroke-width:1px;stroke-linecap:butt;stroke-linejoin:miter;stroke-opacity:1" />
      <path
         sodipodi:nodetypes="ccccccssccc"
         inkscape:connector-curvature="0"
         id="path3411"
         d="m 235.36554,563.44837 -21.71828,-1.01015 -1.01015,2.52538 -2.0203,6.56599 c 5.2566,8.0806 10.48425,16.42178 16.66751,16.16244 l 5.05077,-6.56599 c 0,0 -5.05077,9.59645 -2.02031,10.10153 3.03046,0.50507 7.07107,-3.03046 7.07107,-6.06092 0,-3.03046 -3.03046,-7.57614 -3.03046,-7.57614 3.60279,-1.68359 6.85028,-3.61971 5.80838,-5.3033 z"
         style="fill:#ccaaff;fill-rule:evenodd;stroke:none;stroke-width:1px;stroke-linecap:butt;stroke-linejoin:miter;stroke-opacity:1" />
      <path
         sodipodi:nodetypes="ccccccccccccc"
         inkscape:connector-curvature="0"
         id="path3417"
         d="m 290.35714,542.00506 1.78572,4.28572 2.33412,5.1046 -0.19127,7.75254 -9.64285,10.35714 -6.07143,-7.14286 0,4.64286 5.35714,5.71429 -1.78571,2.14285 c -5.33758,-1.70281 -5.58123,-7.65057 -7.14286,-12.5 l -6.78571,-6.42857 3.57142,-6.07143 z"
         style="fill:#ccaaff;fill-rule:evenodd;stroke:none;stroke-width:1px;stroke-linecap:butt;stroke-linejoin:miter;stroke-opacity:1" />
      <path
         sodipodi:nodetypes="cccccccccccc"
         inkscape:connector-curvature="0"
         id="path3419"
         d="m 277.5,511.64792 22.14286,-7.5 1.07143,3.92857 1.42857,6.42857 0,6.42857 c 0.94493,5.27808 -3.97576,6.89015 -8.21429,8.92857 l -8.57143,-5.71428 5.71429,9.28571 c -0.8123,3.74656 -2.88459,4.13315 -5.71429,2.5 l -3.57143,-12.85714 -5.35714,-4.64286 z"
         style="fill:#ccaaff;fill-rule:evenodd;stroke:none;stroke-width:1px;stroke-linecap:butt;stroke-linejoin:miter;stroke-opacity:1" />
      <path
         sodipodi:nodetypes="ccccccccccccccc"
         inkscape:connector-curvature="0"
         id="path3421"
         d="m 231.78571,528.07649 -18.21428,-5.71429 -2.14286,2.14286 -0.35714,7.85714 1.78571,10.71429 6.32397,6.76777 c 1.0114,2.86014 2.77685,-2.08698 4.39032,-2.8392 l 5,-2.85714 -2.5,5.35714 -2.85714,3.92857 4.28571,2.85715 3.21429,-7.85715 0.71428,-5 6.42857,-6.07143 z"
         style="fill:#ccaaff;fill-rule:evenodd;stroke:none;stroke-width:1px;stroke-linecap:butt;stroke-linejoin:miter;stroke-opacity:1" />
      <path
         inkscape:connector-curvature="0"
         id="path3425"
         d="m 254.64286,473.07649 11.42857,22.85714 z"
         style="fill:none;fill-rule:evenodd;stroke:#00ff00;stroke-width:1px;stroke-linecap:butt;stroke-linejoin:miter;stroke-opacity:1" />
      <path
         inkscape:connector-curvature="0"
         id="path3427"
         d="m 267.85714,463.79078 27.14286,0 -23.92857,-0.35715 z"
         style="fill:none;fill-rule:evenodd;stroke:#00ff00;stroke-width:1px;stroke-linecap:butt;stroke-linejoin:miter;stroke-opacity:1" />
      <path
         inkscape:connector-curvature="0"
         id="path3429"
         d="M 241.07143,472.71935 230.35714,494.8622 Z"
         style="fill:none;fill-rule:evenodd;stroke:#00ff00;stroke-width:1px;stroke-linecap:butt;stroke-linejoin:miter;stroke-opacity:1" />
      <path
         sodipodi:nodetypes="cssssc"
         inkscape:connector-curvature="0"
         id="path3382"
         d="m 382.59528,454.3519 c 0,0 -16.66752,-0.75762 -25.00128,4.04061 -8.33376,4.79822 -12.12183,9.84898 -12.87944,11.61675 -0.75762,1.76777 -3.12781,5.05546 -3.03046,6.06092 0.43379,4.48046 23.3511,0.21374 26.01142,-1.51523 4.98973,-3.24288 19.53492,-19.70434 14.89976,-20.20305 z"
         style="fill:#2ca02c;fill-rule:evenodd;stroke:none;stroke-width:1px;stroke-linecap:butt;stroke-linejoin:miter;stroke-opacity:1" />
      <path
         sodipodi:nodetypes="csscssc"
         inkscape:connector-curvature="0"
         id="path3384"
         d="m 390.17142,457.38235 c 0,0 -10.85914,13.13199 -11.36421,17.1726 -0.50508,4.04061 -1.76777,12.37437 -0.75762,15.65736 1.01015,3.283 4.04061,12.62691 4.04061,12.62691 0,0 6.1851,-0.0718 12.12183,-13.8896 1.67924,-3.90844 0.50508,-7.82868 0.75761,-13.63706 0.25254,-5.80837 -3.03045,-12.87944 -4.79822,-17.93021 z"
         style="fill:#2ca02c;fill-rule:evenodd;stroke:none;stroke-width:1px;stroke-linecap:butt;stroke-linejoin:miter;stroke-opacity:1" />
      <path
         sodipodi:nodetypes="csssssc"
         inkscape:connector-curvature="0"
         id="path3388"
         d="m 395.72726,460.41281 c 0,0 3.78807,12.62691 9.34391,16.66752 5.55584,4.04061 11.11168,7.07107 13.8896,7.82868 2.77792,0.75761 10.85914,2.02031 13.38452,1.76777 2.52538,-0.25254 -0.75761,-9.59645 -3.53553,-13.38452 -2.77792,-3.78808 -10.8934,-9.60377 -15.15229,-11.36422 -6.15283,-2.54332 -17.93021,-1.51523 -17.93021,-1.51523 z"
         style="fill:#2ca02c;fill-rule:evenodd;stroke:none;stroke-width:1px;stroke-linecap:butt;stroke-linejoin:miter;stroke-opacity:1" />
      <path
         inkscape:connector-curvature="0"
         id="path3390"
         d="M 350.89286,472.71934 373.75,460.39792 Z"
         style="fill:none;fill-rule:evenodd;stroke:#00ff00;stroke-width:1px;stroke-linecap:butt;stroke-linejoin:miter;stroke-opacity:1" />
      <path
         inkscape:connector-curvature="0"
         id="path3392"
         d="m 383.39286,492.54077 4.46428,-25.53571 z"
         style="fill:none;fill-rule:evenodd;stroke:#00ff00;stroke-width:1px;stroke-linecap:butt;stroke-linejoin:miter;stroke-opacity:1" />
      <path
         inkscape:connector-curvature="0"
         id="path3394"
         d="M 403.39286,465.39792 425,479.68363 Z"
         style="fill:none;fill-rule:evenodd;stroke:#00ff00;stroke-width:1px;stroke-linecap:butt;stroke-linejoin:miter;stroke-opacity:1" />
      <path
         sodipodi:nodetypes="ccscccccc"
         inkscape:connector-curvature="0"
         id="path3396"
         d="m 388.92857,497.89792 2.67857,14.10714 c 0,0 5.71429,3.21428 8.75,3.21428 3.03572,0 0.35715,2.5 0.35715,2.5 0,0 -7.32143,-1.25 -7.85715,-1.96428 -0.53571,-0.71429 -0.89285,5.17332 -0.89285,5.17332 l -5.03064,-0.62763 -3.54079,-18.11712 z"
         style="fill:#8dd35f;fill-opacity:1;fill-rule:evenodd;stroke:none;stroke-width:1px;stroke-linecap:butt;stroke-linejoin:miter;stroke-opacity:1" />
      <path
         inkscape:connector-curvature="0"
         id="path3398"
         d="M 378.39286,549.14792 380,547.71935 l 8.57143,6.96428 -3.39286,1.25 -1.96428,-2.14286 -3.03572,1.42858 z"
         style="fill:#8dd35f;fill-opacity:1;fill-rule:evenodd;stroke:none;stroke-width:1px;stroke-linecap:butt;stroke-linejoin:miter;stroke-opacity:1" />
      <path
         sodipodi:nodetypes="ccsssscccccsssc"
         inkscape:connector-curvature="0"
         id="path3400"
         d="m 397.14286,573.07649 c 2.21245,8.91144 -1.20226,22.64615 -1.96429,34.10714 0,0 -3.39285,22.14286 -5.17857,25.17857 -1.78571,3.03572 -5.09681,20.44749 -7.67857,24.64286 -2.85714,4.64286 -6.96429,20.35715 -11.60714,26.07143 -2.82189,3.4731 -13.92857,23.92857 -14.64286,24.46428 -0.71429,0.53572 -11.96429,16.07143 -11.96429,16.07143 l -0.89285,-1.07142 12.5,-17.32143 10.89285,-18.21429 9.46429,-19.46429 c 0,0 7.5,-23.57142 8.03571,-25.53571 0.53572,-1.96429 6.78572,-32.85714 6.60715,-34.46429 -0.17857,-1.60714 3.39285,-30.17857 3.03571,-32.85714 -0.35714,-2.67857 3.39286,-1.60714 3.39286,-1.60714 z"
         style="fill:#8dd35f;fill-opacity:1;fill-rule:evenodd;stroke:none;stroke-width:1px;stroke-linecap:butt;stroke-linejoin:miter;stroke-opacity:1" />
      <path
         sodipodi:nodetypes="cscsc"
         inkscape:connector-curvature="0"
         id="path3402"
         d="m 397.32143,591.1122 c 0,0 2.67857,5.71429 4.28571,6.42857 1.60715,0.71429 1.42858,5 1.42858,5 0,0 -5.70531,-3.77166 -6.59817,-5.73595 -0.89286,-1.96428 0.88388,-5.69262 0.88388,-5.69262 z"
         style="fill:#8dd35f;fill-opacity:1;fill-rule:evenodd;stroke:none;stroke-width:1px;stroke-linecap:butt;stroke-linejoin:miter;stroke-opacity:1" />
      <path
         sodipodi:nodetypes="csccccssc"
         inkscape:connector-curvature="0"
         id="path3404"
         d="m 391.49356,602.04838 c 0,0 -3.45784,4.77811 -7.20784,2.81382 -3.75,-1.96428 -6.25,-2.32143 -6.25,-2.32143 l -4.64286,8.03572 5.53571,0.89286 0,0 c 0,0 3.57143,-2.32143 4.82143,-3.03572 1.25,-0.71428 6.24102,-2.14286 7.13388,-2.5 0.89286,-0.35714 0.60968,-3.88525 0.60968,-3.88525 z"
         style="fill:#8dd35f;fill-opacity:1;fill-rule:evenodd;stroke:none;stroke-width:1px;stroke-linecap:butt;stroke-linejoin:miter;stroke-opacity:1" />
      <path
         sodipodi:nodetypes="csscc"
         inkscape:connector-curvature="0"
         id="path3406"
         d="m 406.34191,603.21174 c 0,0 9.48967,3.95022 10.73967,3.59308 1.25,-0.35714 -0.56635,-8.72833 0.68365,-9.08547 1.25,-0.35715 -6.33666,0 -6.33666,0 z"
         style="fill:#8dd35f;fill-opacity:1;fill-rule:evenodd;stroke:none;stroke-width:1px;stroke-linecap:butt;stroke-linejoin:miter;stroke-opacity:1" />
      <path
         sodipodi:nodetypes="cscsssscc"
         inkscape:connector-curvature="0"
         id="path3408"
         d="m 392.67857,624.32649 c 0,0 3.92857,6.42857 6.42857,6.78571 2.5,0.35715 2.67858,1.42857 3.57143,1.60715 0.89286,0.17857 6.78572,-1.78572 8.39286,1.07142 1.60714,2.85715 1.07143,10.35715 -2.14286,10.35715 -3.21428,0 -5.53571,-5.53572 -5.71428,-6.60715 -0.17857,-1.07142 -10.17857,-7.14285 -10.17857,-8.21428 0,-1.07143 -2.30349,-2.36475 -2.30349,-2.36475 z"
         style="fill:#8dd35f;fill-opacity:1;fill-rule:evenodd;stroke:none;stroke-width:1px;stroke-linecap:butt;stroke-linejoin:miter;stroke-opacity:1" />
      <path
         sodipodi:nodetypes="cscsssscc"
         inkscape:connector-curvature="0"
         id="path3410"
         d="m 385.4961,637.81498 c 0,0 -6.03181,3.11865 -12.28181,3.29722 -6.25,0.17857 -4.46429,-1.78571 -4.46429,-1.78571 0,0 -3.39286,-1.25 -4.64286,-1.07143 -1.25,0.17857 -4.46428,1.07143 -3.03571,5.71429 1.42857,4.64285 2.67857,6.07142 3.75,5.17857 1.07143,-0.89286 6.42857,-3.57143 6.60714,-4.46429 0.17857,-0.89286 12.69126,-2.42603 13.22698,-2.96174 0.53571,-0.53572 1.37626,-3.19262 0.84055,-3.90691 z"
         style="fill:#8dd35f;fill-opacity:1;fill-rule:evenodd;stroke:none;stroke-width:1px;stroke-linecap:butt;stroke-linejoin:miter;stroke-opacity:1" />
      <path
         sodipodi:nodetypes="cscscsssc"
         inkscape:connector-curvature="0"
         id="path3412"
         d="m 384.95668,648.44261 c 0,0 2.90046,9.09816 3.97189,10.16959 1.07143,1.07143 4.64286,5.89286 5.53572,6.25 0.89285,0.35715 1.60714,0.71429 3.39285,0.89286 1.78572,0.17857 2.5,0.17857 2.5,0.17857 0,0 0.35715,8.39286 -2.67857,7.14286 -3.03571,-1.25 -3.92857,-3.75 -3.92857,-4.82143 0,-1.07143 -9.46428,-11.96429 -9.82143,-13.92857 -0.35714,-1.96429 1.02811,-5.88388 1.02811,-5.88388 z"
         style="fill:#8dd35f;fill-opacity:1;fill-rule:evenodd;stroke:none;stroke-width:1px;stroke-linecap:butt;stroke-linejoin:miter;stroke-opacity:1" />
      <path
         sodipodi:nodetypes="cscssssc"
         inkscape:connector-curvature="0"
         id="path3414"
         d="m 377.79587,663.4553 c 0,0 -6.90301,3.01405 -10.65301,2.47833 -3.75,-0.53571 -4.10714,-0.35714 -4.10714,-0.35714 0,0 -2.32143,-1.78572 -4.64286,-1.42857 -2.32143,0.35714 -4.82143,5.17857 -3.03572,6.60714 1.78572,1.42857 6.07143,0.17857 6.78572,-0.53571 0.71428,-0.71429 11.60714,-1.60715 13.21428,-2.32143 1.60715,-0.71429 2.43873,-4.44262 2.43873,-4.44262 z"
         style="fill:#8dd35f;fill-opacity:1;fill-rule:evenodd;stroke:none;stroke-width:1px;stroke-linecap:butt;stroke-linejoin:miter;stroke-opacity:1" />
      <path
         sodipodi:nodetypes="cssccsc"
         inkscape:connector-curvature="0"
         id="path3416"
         d="m 379.10714,665.04077 c 0,0 1.42858,9.82143 1.96429,11.07143 0.53571,1.25 1.07143,4.10715 2.32143,5.71429 1.25,1.60714 -0.89286,2.14286 -0.89286,2.14286 l -3.39286,-7.5 c 0,0 -2.14286,-4.82143 -2.5,-5.71429 -0.35714,-0.89286 2.5,-5.71429 2.5,-5.71429 z"
         style="fill:#8dd35f;fill-opacity:1;fill-rule:evenodd;stroke:none;stroke-width:1px;stroke-linecap:butt;stroke-linejoin:miter;stroke-opacity:1" />
      <path
         inkscape:connector-curvature="0"
         id="path3418"
         d="m 368.75,682.71935 c 0,0 -11.07143,4.46428 -13.75,4.82142 -2.67857,0.35715 0,2.5 0,2.5 0,0 9.82143,-3.03571 10.71429,-3.21428 0.89285,-0.17857 3.03571,-4.10714 3.03571,-4.10714 z"
         style="fill:#8dd35f;fill-opacity:1;fill-rule:evenodd;stroke:none;stroke-width:1px;stroke-linecap:butt;stroke-linejoin:miter;stroke-opacity:1" />
      <path
         sodipodi:nodetypes="ccccc"
         inkscape:connector-curvature="0"
         id="path3420"
         d="m 369.10715,684.8622 3.74999,14.46429 -1.25,0.35714 -4.82143,-12.32143 z"
         style="fill:#8dd35f;fill-opacity:1;fill-rule:evenodd;stroke:none;stroke-width:1px;stroke-linecap:butt;stroke-linejoin:miter;stroke-opacity:1" />
      <path
         inkscape:connector-curvature="0"
         id="path3422"
         d="M 358.03572,705.04077 360,716.64792 l -0.71428,1.25 c 0,0 -3.21429,-10.17857 -2.67858,-11.07143 0.53572,-0.89286 1.42858,-1.78572 1.42858,-1.78572 z"
         style="fill:#8dd35f;fill-opacity:1;fill-rule:evenodd;stroke:none;stroke-width:1px;stroke-linecap:butt;stroke-linejoin:miter;stroke-opacity:1" />
      <path
         sodipodi:nodetypes="ccccc"
         inkscape:connector-curvature="0"
         id="path3426"
         d="M 357.85715,702.54077 345,705.39792 l 0.17857,1.96428 11.42857,-2.14286 z"
         style="fill:#8dd35f;fill-opacity:1;fill-rule:evenodd;stroke:none;stroke-width:1px;stroke-linecap:butt;stroke-linejoin:miter;stroke-opacity:1" />
      <path
         inkscape:connector-curvature="0"
         id="path3428"
         d="m 343.39286,722.18363 -6.78572,2.85714 -3.39285,4.46429 1.42857,3.21429 3.21428,0.89285 4.82143,-5 2.14286,-4.82143 z"
         style="fill:#ccaaff;fill-opacity:1;fill-rule:evenodd;stroke:none;stroke-width:1px;stroke-linecap:butt;stroke-linejoin:miter;stroke-opacity:1" />
      <path
         inkscape:connector-curvature="0"
         id="path3430"
         d="m 359.64286,718.79077 0.89286,6.78572 3.92857,2.85714 1.60714,-2.67857 -5.53571,-8.21429 z"
         style="fill:#ccaaff;fill-opacity:1;fill-rule:evenodd;stroke:none;stroke-width:1px;stroke-linecap:butt;stroke-linejoin:miter;stroke-opacity:1" />
      <path
         inkscape:connector-curvature="0"
         id="path3432"
         d="m 344.64286,705.39792 c 0,0 -12.32143,-0.71429 -11.96429,1.25 0.35715,1.96428 2.5,2.5 2.5,2.5 l 10.35715,-1.25 z"
         style="fill:#ccaaff;fill-opacity:1;fill-rule:evenodd;stroke:none;stroke-width:1px;stroke-linecap:butt;stroke-linejoin:miter;stroke-opacity:1" />
      <path
         inkscape:connector-curvature="0"
         id="path3436"
         d="m 371.60714,700.57649 c 0,0 1.42858,7.67857 3.57143,10 2.14286,2.32143 4.10715,2.5 4.64286,1.60714 0.53571,-0.89286 0,-3.75 -1.07143,-5.53571 -1.07143,-1.78572 -4.28571,-5 -4.28571,-5 l -1.07143,-1.60715 z"
         style="fill:#ccaaff;fill-opacity:1;fill-rule:evenodd;stroke:none;stroke-width:1px;stroke-linecap:butt;stroke-linejoin:miter;stroke-opacity:1" />
      <path
         inkscape:connector-curvature="0"
         id="path3438"
         d="m 352.14286,688.43363 c 0,0 -8.57143,0 -9.46429,0 -0.89285,0 -3.57143,-1.42857 -4.28571,0.53572 -0.71429,1.96428 -0.17857,5.89285 1.60714,5.71428 1.78572,-0.17857 5.53572,-1.25 6.96429,-1.42857 1.42857,-0.17857 5.89285,-3.75 5.89285,-3.75 z"
         style="fill:#ccaaff;fill-opacity:1;fill-rule:evenodd;stroke:none;stroke-width:1px;stroke-linecap:butt;stroke-linejoin:miter;stroke-opacity:1" />
      <path
         inkscape:connector-curvature="0"
         id="path3440"
         d="m 383.03572,684.50506 c 0,0 0.17857,5.71429 2.5,8.03571 2.32142,2.32143 4.82142,3.75 6.07142,3.75 1.25,0 2.14286,-1.96428 2.14286,-1.96428 l -3.57143,-4.82143 -5,-5.35714 -1.60714,-1.07143 z"
         style="fill:#ccaaff;fill-opacity:1;fill-rule:evenodd;stroke:none;stroke-width:1px;stroke-linecap:butt;stroke-linejoin:miter;stroke-opacity:1" />
      <path
         inkscape:connector-curvature="0"
         id="path3442"
         d="m 356.60714,665.21935 -6.42857,-1.60715 -6.78571,-2.14285 -5.89286,-1.78572 c 0,0 -4.10714,-0.89286 -3.39286,1.60714 0.71429,2.5 2.85715,6.42858 3.75,7.5 0.89286,1.07143 4.10715,4.64286 5,4.82143 0.89286,0.17857 3.39286,0.71429 5.35715,0.17857 1.96428,-0.53571 4.28571,-1.07142 5.53571,-1.60714 1.25,-0.53571 2.67857,-1.25 2.67857,-1.25 z"
         style="fill:#ccaaff;fill-opacity:1;fill-rule:evenodd;stroke:none;stroke-width:1px;stroke-linecap:butt;stroke-linejoin:miter;stroke-opacity:1" />
      <path
         inkscape:connector-curvature="0"
         id="path3444"
         d="m 400.53572,666.1122 7.85714,4.10715 8.21428,2.14285 4.82143,0.53572 c 0,0 3.21429,3.39285 1.60715,4.28571 -1.60715,0.89286 -5.89286,3.75 -5.89286,3.75 l -5.17857,1.42857 -5,-0.89285 c 0,0 -6.42857,-6.42858 -6.96429,-7.67858 -0.53571,-1.25 0.53572,-7.67857 0.53572,-7.67857 z"
         style="fill:#ccaaff;fill-opacity:1;fill-rule:evenodd;stroke:none;stroke-width:1px;stroke-linecap:butt;stroke-linejoin:miter;stroke-opacity:1" />
      <path
         inkscape:connector-curvature="0"
         id="path3446"
         d="m 360.53572,638.07649 c 0,0 -15.71429,-4.64286 -16.78572,-5.35714 -1.07143,-0.71429 -3.75,-3.03572 -4.46428,-3.03572 -0.71429,0 -5.71429,0.53572 -4.28572,4.46429 1.42857,3.92857 4.10714,10.35714 5.89286,11.25 1.78571,0.89285 5.53571,3.21428 8.21428,3.75 2.67858,0.53571 7.14286,0.89285 9.28572,0.71428 2.14286,-0.17857 3.92857,-2.14285 3.92857,-2.14285 z"
         style="fill:#ccaaff;fill-opacity:1;fill-rule:evenodd;stroke:none;stroke-width:1px;stroke-linecap:butt;stroke-linejoin:miter;stroke-opacity:1" />
      <path
         inkscape:connector-curvature="0"
         id="path3448"
         d="m 412.14286,635.21935 c 0,0 9.64286,0.17857 12.5,0.71428 2.85714,0.53572 3.92857,0 8.21429,0 4.28571,0 5.53571,-0.17857 5.53571,-0.17857 0,0 0.35714,5.89286 -1.78571,7.14286 -2.14286,1.25 -3.92858,5 -5.17858,5.17857 -1.25,0.17857 -6.96428,1.42857 -6.96428,1.42857 l -9.82143,-2.14286 -4.46429,-3.57143 2.5,-8.39285 z"
         style="fill:#ccaaff;fill-opacity:1;fill-rule:evenodd;stroke:none;stroke-width:1px;stroke-linecap:butt;stroke-linejoin:miter;stroke-opacity:1" />
      <path
         inkscape:connector-curvature="0"
         id="path3450"
         d="m 361.42857,616.29077 c 0,0 -8.92857,10.71429 -10.71428,10.71429 -1.78572,0 -4.64286,-3.57143 -4.64286,-3.57143 l 5,-4.28571 6.78571,-5 z"
         style="fill:#ccaaff;fill-opacity:1;fill-rule:evenodd;stroke:none;stroke-width:1px;stroke-linecap:butt;stroke-linejoin:miter;stroke-opacity:1" />
      <path
         sodipodi:nodetypes="ccccccc"
         inkscape:connector-curvature="0"
         id="path3452"
         d="m 426.28438,611.17808 c 3.06407,5.85908 5.73018,13.11104 10.6066,12.62691 2.4877,0.13822 4.89459,0.21178 5.05076,-1.51523 -0.0416,-1.59941 -2.43452,-3.19882 -5.3033,-4.79823 l -3.78807,-4.29315 -2.02031,-2.52538 z"
         style="fill:#ccaaff;fill-opacity:1;fill-rule:evenodd;stroke:none;stroke-width:1px;stroke-linecap:butt;stroke-linejoin:miter;stroke-opacity:1" />
      <path
         sodipodi:nodetypes="csccsccccc"
         inkscape:connector-curvature="0"
         id="path3456"
         d="m 351.02801,530.61841 c 0,0 -4.29314,-14.39466 -1.76777,-16.66751 2.52539,-2.27287 5.16241,-8.91986 11.8693,-8.5863 3.4345,-3.63458 12.56731,-5.69137 13.63706,-5.80838 1.26269,0 1.51522,-0.75761 1.76776,2.52538 0,0 1.51523,6.31346 4.54569,10.10153 9.90421,2.27206 -1.64278,20.72646 -3.71937,21.49112 -7.22764,7.08115 -7.6336,4.86288 -7.64485,4.77285 l -11.36421,-0.50508 z"
         style="fill:#ccaaff;fill-opacity:1;fill-rule:evenodd;stroke:none;stroke-width:1px;stroke-linecap:butt;stroke-linejoin:miter;stroke-opacity:1" />
      <path
         sodipodi:nodetypes="ccsccc"
         inkscape:connector-curvature="0"
         id="path3458"
         d="m 359.10923,536.93187 c 0.1591,-4.9516 -0.5604,-10.07892 2.77792,-14.39468 0.49593,-2.47964 4.14732,-2.44114 5.05076,-2.52538 3.00928,-0.28059 3.77406,7.07575 2.27285,7.57615 l -6.81853,6.81853 z"
         style="fill:#ffd5d5;fill-rule:evenodd;stroke:none;stroke-width:1px;stroke-linecap:butt;stroke-linejoin:miter;stroke-opacity:1" />
      <path
         sodipodi:nodetypes="ccccccscccc"
         inkscape:connector-curvature="0"
         id="path3460"
         d="m 359.47163,537.48553 -11.97915,-6.36204 c -7.93164,1.53388 -10.72376,7.17937 -15.65737,11.11168 10.8552,5.32698 12.76107,0.71026 18.18275,0 l 8.08122,-3.03046 7.07107,16.66752 c 0,0 6.56599,5.55584 7.57614,3.53553 1.01015,-2.0203 1.51523,-10.10152 1.51523,-10.10152 l -2.52538,-11.61676 -12.36168,-0.50508 z"
         style="fill:#dd55ff;fill-rule:evenodd;stroke:none;stroke-width:1px;stroke-linecap:butt;stroke-linejoin:miter;stroke-opacity:1" />
      <path
         sodipodi:nodetypes="ccccccccccc"
         inkscape:connector-curvature="0"
         id="path3415"
         d="m 416.18285,530.11334 -7.57614,-2.02031 -7.57615,-13.63706 4.79823,-11.11168 c 4.13226,-3.16896 1.83265,-3.40955 2.77792,-9.59644 l 4.04061,3.03045 14.64721,3.03046 7.07107,10.6066 0.50507,12.12183 -7.07107,8.5863 z"
         style="fill:#ccaaff;fill-opacity:1;fill-rule:evenodd;stroke:none;stroke-width:1px;stroke-linecap:butt;stroke-linejoin:miter;stroke-opacity:1" />
      <path
         sodipodi:nodetypes="cccccccccccc"
         inkscape:connector-curvature="0"
         id="path3423"
         d="m 389.41381,553.85192 -8.5863,-7.57614 -6.06091,-9.09138 7.07106,-13.13198 3.53554,-5.55584 14.64721,1.51523 6.06091,2.02031 7.07107,14.14213 -1.01015,7.32361 0.50508,4.79822 -12.12183,8.08122 z"
         style="fill:#ccaaff;fill-opacity:1;fill-rule:evenodd;stroke:none;stroke-width:1px;stroke-linecap:butt;stroke-linejoin:miter;stroke-opacity:1" />
      <path
         sodipodi:nodetypes="ccccccccccccc"
         inkscape:connector-curvature="0"
         id="path3431"
         d="m 427.85715,530.04078 -11.07143,-0.89286 -3.21429,9.28571 5.35714,12.5 3.57143,0.71429 2.14286,-15.35715 3.92857,-3.92857 c 5.87443,-0.0945 10.53653,1.42749 15,3.21429 l 7.14286,-1.42857 -2.85715,-5.35715 -6.42857,-5 -8.21428,-1.07142 z"
         style="fill:#dd55ff;fill-rule:evenodd;stroke:none;stroke-width:1px;stroke-linecap:butt;stroke-linejoin:miter;stroke-opacity:1" />
      <path
         inkscape:connector-curvature="0"
         id="path3433"
         d="M 399.64286,552.00506 392.5,542.3622 c 0,0 -3.92857,-6.78571 0.71429,-6.78571 4.64285,0 7.5,1.78571 7.85714,3.21428 0.35714,1.42858 3.21429,12.5 3.21429,12.5 l -0.35715,2.85715 z"
         style="fill:#ffd5d5;fill-rule:evenodd;stroke:none;stroke-width:1px;stroke-linecap:butt;stroke-linejoin:miter;stroke-opacity:1" />
      <path
         sodipodi:nodetypes="ccccccc"
         inkscape:connector-curvature="0"
         id="path3435"
         d="m 423.21429,526.64792 -6.78572,-7.14286 0.16588,-5 c 1.22274,-2.7888 3.7213,-1.1122 6.26269,0.71429 l 5.71429,8.57142 0,3.21429 z"
         style="fill:#ffd5d5;fill-rule:evenodd;stroke:none;stroke-width:1px;stroke-linecap:butt;stroke-linejoin:miter;stroke-opacity:1" />
      <path
         sodipodi:nodetypes="cccccc"
         inkscape:connector-curvature="0"
         id="path3437"
         d="m 401.96428,554.14792 7.32144,-6.07143 14.64285,5.35714 2.5,7.5 -18.57143,-5 z"
         style="fill:#dd55ff;fill-rule:evenodd;stroke:none;stroke-width:1px;stroke-linecap:butt;stroke-linejoin:miter;stroke-opacity:1" />
      <path
         sodipodi:nodetypes="ccccccccc"
         inkscape:connector-curvature="0"
         id="path3439"
         d="M 402.67857,553.43363 395,554.14792 l -6.07143,5.35714 0.35715,11.07143 6.07142,5 3.21429,-4.28572 2.14286,-9.64285 2.14285,-4.28572 z"
         style="fill:#dd55ff;fill-rule:evenodd;stroke:none;stroke-width:1px;stroke-linecap:butt;stroke-linejoin:miter;stroke-opacity:1" />
      <path
         sodipodi:nodetypes="ccssccsc"
         inkscape:connector-curvature="0"
         id="path3443"
         d="m 409.28572,584.14792 -10,-7.85715 c 0,0 -2.85715,-14.64285 0.71428,-16.78571 3.57143,-2.14286 6.42857,-6.42857 12.14286,-6.42857 5.71428,0 10.35714,-1.42857 13.57143,0.71428 9.59196,7.50887 12.33576,19.83911 2.85714,28.57143 -2.5,2.14286 -8.21429,6.07143 -10.71429,5.35715 -2.5,-0.71429 -8.57142,-3.57143 -8.57142,-3.57143 z"
         style="fill:#ccaaff;fill-opacity:1;fill-rule:evenodd;stroke:none;stroke-width:1px;stroke-linecap:butt;stroke-linejoin:miter;stroke-opacity:1" />
      <path
         inkscape:connector-curvature="0"
         id="path3445"
         d="m 418.57143,584.50506 -5,-8.92857 -1.42857,-8.57143 6.78571,0.35714 c 0,0 2.5,7.5 2.5,8.92857 0,1.42858 0.35715,8.57143 0.35715,8.57143 z"
         style="fill:#ffd5d5;fill-rule:evenodd;stroke:none;stroke-width:1px;stroke-linecap:butt;stroke-linejoin:miter;stroke-opacity:1" />
      <path
         inkscape:connector-curvature="0"
         id="path3447"
         d="m 422.85714,550.21935 18.92858,-11.78572 1.78571,2.14286 3.57143,5.35714 4.64286,7.5 -0.71429,9.28572 -5,6.42857 -6.78571,0 -6.78572,-3.21429 z"
         style="fill:#ddafe9;fill-rule:evenodd;stroke:none;stroke-width:1px;stroke-linecap:butt;stroke-linejoin:miter;stroke-opacity:1" />
      <path
         inkscape:connector-curvature="0"
         id="path3449"
         d="m 358.92857,579.14792 -0.71428,-15 8.57143,-5.71429 13.21428,-2.14286 7.14286,4.28572 2.85714,12.85714 -3.57143,10.35714 -9.64285,5.71429 L 365,587.71935 Z"
         style="fill:#ccaaff;fill-opacity:1;fill-rule:evenodd;stroke:none;stroke-width:1px;stroke-linecap:butt;stroke-linejoin:miter;stroke-opacity:1" />
      <path
         inkscape:connector-curvature="0"
         id="path3451"
         d="m 365,584.50506 2.85714,-11.42857 c 0,0 3.92858,-2.5 6.42858,-1.78572 2.5,0.71429 5.71428,5.35715 3.92857,7.14286 -1.78572,1.78572 -10,7.5 -10,7.5 z"
         style="fill:#ffd5d5;fill-rule:evenodd;stroke:none;stroke-width:1px;stroke-linecap:butt;stroke-linejoin:miter;stroke-opacity:1" />
      <path
         inkscape:connector-curvature="0"
         id="path3453"
         d="m 367.14286,586.64792 c 0,0 -7.14286,-5 -10.71429,-5.35715 -3.57143,-0.35714 -13.21428,7.85715 -13.57143,9.28572 -0.35714,1.42857 5.71429,2.85714 7.85715,2.85714 2.14285,0 9.64285,-2.5 9.64285,-2.5 l 5.71429,-1.07143 7.5,16.42857 c 0,0 4.28571,-2.85714 4.64286,-5.35714 0.35714,-2.5 -0.71429,-11.42857 -0.71429,-11.42857 z"
         style="fill:#ccaaff;fill-opacity:1;fill-rule:evenodd;stroke:none;stroke-width:1px;stroke-linecap:butt;stroke-linejoin:miter;stroke-opacity:1" />
      <path
         inkscape:connector-curvature="0"
         id="path3455"
         d="m 418.57143,586.29077 -6.78571,-3.21428 -6.42858,1.42857 c 0,0 -3.57142,10.35714 -3.57142,12.5 0,2.14286 2.85714,8.92857 2.85714,8.92857 0,0 10,-12.5 12.85714,-14.64286 2.85714,-2.14285 1.42857,-4.64285 6.07143,-1.42857 4.64286,3.21429 17.5,8.57143 17.5,8.57143 l 0,-7.85714 -7.85714,-7.5 c 0,0 -6.07143,-3.92857 -14.64286,3.21428 z"
         style="fill:#ccaaff;fill-opacity:1;fill-rule:evenodd;stroke:none;stroke-width:1px;stroke-linecap:butt;stroke-linejoin:miter;stroke-opacity:1" />
      <path
         inkscape:connector-curvature="0"
         id="path3457"
         d="m 355.35714,564.8622 -5,1.07143 -5.35714,-6.78571 0,-13.21429 12.14286,-7.14286 16.42857,5.35715 5.71429,7.5 1.42857,6.07143 z"
         style="fill:#ddafe9;fill-rule:evenodd;stroke:none;stroke-width:1px;stroke-linecap:butt;stroke-linejoin:miter;stroke-opacity:1" />
      <path
         inkscape:connector-curvature="0"
         id="path3459"
         d="m 417.14286,597.71935 8.21428,-6.78572 16.07143,-5 c 0,0 9.64286,3.92857 9.64286,8.92857 0,5 0,12.85715 0,12.85715 l -5.35714,6.42857 -3.92857,1.78571 c 0,0 -8.21429,-3.57143 -9.64286,-3.92857 -1.42857,-0.35714 -9.64286,-1.78571 -10.71429,-2.5 -1.07143,-0.71429 -3.57143,-1.78571 -3.57143,-1.78571 z"
         style="fill:#ddafe9;fill-opacity:1;fill-rule:evenodd;stroke:none;stroke-width:1px;stroke-linecap:butt;stroke-linejoin:miter;stroke-opacity:1" />
      <path
         inkscape:connector-curvature="0"
         id="path3461"
         d="m 369.28572,599.50506 -8.92858,-5.35714 -5,-2.5 -11.78571,0.35714 -3.21429,4.64286 c 0,0 -3.92857,4.28571 -2.5,9.28571 1.42858,5 1.78572,9.64286 3.57143,10.35714 1.78572,0.71429 8.92857,1.78572 8.92857,1.78572 l 7.14286,-1.42857 15,-5 z"
         style="fill:#ddafe9;fill-opacity:1;fill-rule:evenodd;stroke:none;stroke-width:1px;stroke-linecap:butt;stroke-linejoin:miter;stroke-opacity:1" />
      <path
         sodipodi:nodetypes="csccssc"
         inkscape:connector-curvature="0"
         id="path4263"
         d="m 501.79328,455.86712 c 0,0 -15.27884,-4.57239 -22.98097,0 -15.27788,9.06976 -11.86929,9.34392 -11.86929,9.34392 l -4.04061,7.3236 c 0,0 13.88959,3.283 18.43528,1.51523 4.54569,-1.76777 13.96357,-7.45885 14.46864,-8.469 0.50508,-1.01016 6.9971,-9.71375 5.98695,-9.71375 z"
         style="fill:#2ca02c;fill-opacity:1;fill-rule:evenodd;stroke:none;stroke-width:1px;stroke-linecap:butt;stroke-linejoin:miter;stroke-opacity:1" />
      <path
         sodipodi:nodetypes="csscc"
         inkscape:connector-curvature="0"
         id="path4267"
         d="m 507.85419,458.39251 c 0,0 -12.13452,13.63706 -13.64975,17.17259 -1.51522,3.53553 -2.90697,17.38951 2.033,23.99112 3.6095,4.82361 15.5834,-22.40192 15.5834,-22.40192 -1.11069,-6.78965 0.0994,-12.50786 -3.96665,-18.76179 z"
         style="fill:#2ca02c;fill-opacity:1;fill-rule:evenodd;stroke:none;stroke-width:1px;stroke-linecap:butt;stroke-linejoin:miter;stroke-opacity:1" />
      <path
         sodipodi:nodetypes="csscccc"
         inkscape:connector-curvature="0"
         id="path4269"
         d="m 512.39988,461.6755 c 0,0 4.50236,14.94308 9.04805,17.97353 4.54569,3.03046 11.155,7.28029 14.18546,8.54298 3.03046,1.26269 10.10152,1.26269 10.10152,1.26269 l -7.57614,-17.67767 -10.85914,-7.32361 z"
         style="fill:#2ca02c;fill-opacity:1;fill-rule:evenodd;stroke:none;stroke-width:1px;stroke-linecap:butt;stroke-linejoin:miter;stroke-opacity:1" />
      <path
         inkscape:connector-curvature="0"
         id="path4271"
         d="m 506.42857,490.04077 3.03572,11.42857 1.07143,7.5 2.67857,14.28572 c 0,0 -0.35714,8.57143 0,9.28571 0.35714,0.71429 0,10.71429 0,10.71429 l -0.71429,19.64286 -2.67857,13.75 c 0,0 -5.35714,20.17857 -5.53571,21.07143 -0.17857,0.89285 -8.21429,18.57142 -8.21429,18.57142 l -3.03571,5.53572 -1.60715,-1.25 3.39286,-6.07143 6.25,-13.21429 4.64286,-14.82142 c 0,0 1.96428,-15.35715 3.39286,-18.75 1.42857,-3.39286 0.53571,-5.71429 1.07142,-12.14286 0.53572,-6.42857 0.35715,-19.82143 0.35715,-22.67857 0,-2.85715 -0.53572,-10.71429 -0.89286,-12.85715 -0.35714,-2.14285 -4.28571,-23.57143 -4.64286,-25.17857 -0.35714,-1.60714 1.42857,-4.82143 1.42857,-4.82143 z"
         style="fill:#8dd35f;fill-opacity:1;fill-rule:evenodd;stroke:none;stroke-width:1px;stroke-linecap:butt;stroke-linejoin:miter;stroke-opacity:1" />
      <path
         sodipodi:nodetypes="ccccccsc"
         inkscape:connector-curvature="0"
         id="path4273"
         d="m 510,501.1122 9.28572,5 6.78571,-3.75 2.85714,8.75 -4.28571,-0.89286 c 0,0 -3.75,-0.89285 -4.28571,-1.42857 -0.53572,-0.53571 -8.05241,-1.70579 -10,-3.75 -2.81335,-2.95293 -0.5294,-3.95318 -0.35715,-3.92857 z"
         style="fill:#8dd35f;fill-opacity:1;fill-rule:evenodd;stroke:none;stroke-width:1px;stroke-linecap:butt;stroke-linejoin:miter;stroke-opacity:1" />
      <path
         sodipodi:nodetypes="csscccc"
         inkscape:connector-curvature="0"
         id="path4275"
         d="m 508.76269,514.35712 c 0,0 -1.7984,5.32651 -3.40554,4.96937 -1.60715,-0.35715 -7.67858,-3.21429 -9.28572,-2.14286 -1.60714,1.07143 2.14286,8.92857 2.14286,8.92857 l 4.82143,-3.39286 5.89285,-4.46428 c 1.75128,-1.79919 1.35539,-3.08052 -0.16588,-3.89794 z"
         style="fill:#8dd35f;fill-opacity:1;fill-rule:evenodd;stroke:none;stroke-width:1px;stroke-linecap:butt;stroke-linejoin:miter;stroke-opacity:1" />
      <path
         sodipodi:nodetypes="cccccscc"
         inkscape:connector-curvature="0"
         id="path4277"
         d="m 513.75,526.46934 4.82143,6.42858 4.46429,-1.42858 3.39285,-1.07142 0.53572,8.39285 c 0,0 -4.91424,-2.40973 -7.5,-3.75 -2.56011,-1.32697 -5.909,-3.96187 -5.89286,-4.10714 -0.49795,-1.34873 -1.84522,-2.48513 0.17857,-4.46429 z"
         style="fill:#8dd35f;fill-opacity:1;fill-rule:evenodd;stroke:none;stroke-width:1px;stroke-linecap:butt;stroke-linejoin:miter;stroke-opacity:1" />
      <path
         sodipodi:nodetypes="cccsccc"
         inkscape:connector-curvature="0"
         id="path4279"
         d="m 510.17857,544.50506 -8.21428,3.03571 -5.35714,-1.07142 c 0,0 -1.78572,5.35714 -0.17858,6.60714 1.60715,1.25 5.53572,-2.67857 5.53572,-2.67857 l 9.11983,-3.23596 z"
         style="fill:#8dd35f;fill-opacity:1;fill-rule:evenodd;stroke:none;stroke-width:1px;stroke-linecap:butt;stroke-linejoin:miter;stroke-opacity:1" />
      <path
         sodipodi:nodetypes="cccsccc"
         inkscape:connector-curvature="0"
         id="path4281"
         d="m 513.57143,552.18363 6.96429,5.17857 5,0.17857 c 2.22737,-0.27842 1.94602,9.44425 -0.17857,8.75 C 523.3704,565.64156 520,560.39792 520,560.39792 l -6.78571,-3.92857 c -1.07935,-2.38729 -0.15779,-3.17385 0.35714,-4.28572 z"
         style="fill:#8dd35f;fill-opacity:1;fill-rule:evenodd;stroke:none;stroke-width:1px;stroke-linecap:butt;stroke-linejoin:miter;stroke-opacity:1" />
      <path
         sodipodi:nodetypes="csccscsc"
         inkscape:connector-curvature="0"
         id="path4283"
         d="m 509.46429,561.1122 c 0,0 -1.78572,2.85715 -5.17857,3.21429 -3.39286,0.35714 -5.71429,0.17857 -5.71429,0.17857 l -3.21428,0.17857 c 0,0 -0.53572,7.14286 0.71428,7.67857 1.25,0.53572 4.82143,-2.85714 5.17857,-3.57143 0.35715,-0.71428 7.11718,-3.33192 7.67857,-3.39285 1.6453,-0.17857 1.06409,-4.28572 0.53572,-4.28572 z"
         style="fill:#8dd35f;fill-opacity:1;fill-rule:evenodd;stroke:none;stroke-width:1px;stroke-linecap:butt;stroke-linejoin:miter;stroke-opacity:1" />
      <path
         sodipodi:nodetypes="cccsssc"
         inkscape:connector-curvature="0"
         id="path4287"
         d="m 511.42857,573.07649 6.42858,8.92857 3.39285,-0.35714 c 0,0 0.35715,5.89285 -1.42857,6.07143 -1.78571,0.17857 -2.85714,-3.03572 -3.03571,-3.92858 -0.17857,-0.89285 -6.35706,-6.09348 -6.60715,-7.5 -0.54441,-3.06179 0.78558,-4.60754 1.25,-3.21428 z"
         style="fill:#8dd35f;fill-opacity:1;fill-rule:evenodd;stroke:none;stroke-width:1px;stroke-linecap:butt;stroke-linejoin:miter;stroke-opacity:1" />
      <path
         sodipodi:nodetypes="cscsscc"
         inkscape:connector-curvature="0"
         id="path4289"
         d="m 506.99865,581.90046 c 0,0 -6.82008,2.78317 -8.96293,2.42603 -2.14286,-0.35714 -2.85715,-0.89286 -2.85715,-0.89286 0,0 -3.57142,1.25 -1.60714,4.46429 1.96429,3.21428 4.28572,0.35714 4.28572,0 0,-0.35715 8.03571,-2.85715 8.03571,-2.85715 z"
         style="fill:#8dd35f;fill-opacity:1;fill-rule:evenodd;stroke:none;stroke-width:1px;stroke-linecap:butt;stroke-linejoin:miter;stroke-opacity:1" />
      <path
         sodipodi:nodetypes="csccc"
         inkscape:connector-curvature="0"
         id="path4291"
         d="m 508.01405,583.90435 c 0,0 2.87881,9.52928 4.12881,10.95785 1.25,1.42857 -1.25,1.42857 -1.25,1.42857 l -4.10714,-8.21428 z"
         style="fill:#8dd35f;fill-opacity:1;fill-rule:evenodd;stroke:none;stroke-width:1px;stroke-linecap:butt;stroke-linejoin:miter;stroke-opacity:1" />
      <path
         sodipodi:nodetypes="ccccc"
         inkscape:connector-curvature="0"
         id="path4293"
         d="m 502.81753,596.98339 -9.96038,3.77167 0.53571,1.60714 8.57143,-2.5 z"
         style="fill:#8dd35f;fill-opacity:1;fill-rule:evenodd;stroke:none;stroke-width:1px;stroke-linecap:butt;stroke-linejoin:miter;stroke-opacity:1" />
      <path
         sodipodi:nodetypes="ccccc"
         inkscape:connector-curvature="0"
         id="path4295"
         d="m 503.22327,599.38777 4.09816,9.403 -1.25,1.25 -3.66706,-8.74102 z"
         style="fill:#8dd35f;fill-opacity:1;fill-rule:evenodd;stroke:none;stroke-width:1px;stroke-linecap:butt;stroke-linejoin:miter;stroke-opacity:1" />
      <path
         sodipodi:nodetypes="ccccc"
         inkscape:connector-curvature="0"
         id="path4297"
         d="m 495.90555,611.87879 -6.61983,2.26913 0.35714,2.32143 6.16706,-2.85715 z"
         style="fill:#8dd35f;fill-opacity:1;fill-rule:evenodd;stroke:none;stroke-width:1px;stroke-linecap:butt;stroke-linejoin:miter;stroke-opacity:1" />
      <path
         inkscape:connector-curvature="0"
         id="path4299"
         d="m 497.67857,613.25506 1.78572,8.39286 -1.42857,0.71428 -1.42857,-7.14285 z"
         style="fill:#8dd35f;fill-opacity:1;fill-rule:evenodd;stroke:none;stroke-width:1px;stroke-linecap:butt;stroke-linejoin:miter;stroke-opacity:1" />
      <path
         inkscape:connector-curvature="0"
         id="path4301"
         d="m 526.28948,501.57653 12.37437,-12.37437 3.28299,2.0203 4.04061,5.3033 3.53554,8.83884 -4.79823,6.31345 c 0,0 -4.79822,-1.51523 -6.31345,-1.51523 -1.51523,0 -9.59645,-0.50507 -9.59645,-0.50507 z"
         style="fill:#ccaaff;fill-opacity:1;fill-rule:evenodd;stroke:none;stroke-width:1px;stroke-linecap:butt;stroke-linejoin:miter;stroke-opacity:1" />
      <path
         inkscape:connector-curvature="0"
         id="path4303"
         d="m 496.23744,525.31511 c 0,0 -7.07107,4.54569 -9.34391,3.78807 -2.27284,-0.75761 -4.54569,2.77792 -5.55584,2.77792 -1.01015,0 -6.06092,-7.3236 -6.06092,-7.3236 0,0 -3.03045,-6.06092 -1.51522,-6.81853 1.51522,-0.75762 1.51522,-4.79823 2.77792,-5.05076 1.26269,-0.25254 4.04061,-4.29315 4.04061,-4.29315 l 14.64721,7.82868 z"
         style="fill:#ccaaff;fill-opacity:1;fill-rule:evenodd;stroke:none;stroke-width:1px;stroke-linecap:butt;stroke-linejoin:miter;stroke-opacity:1" />
      <path
         inkscape:connector-curvature="0"
         id="path4305"
         d="m 526.54202,530.87095 15.15228,-11.11168 c 0,0 2.02031,4.04061 3.78808,4.79823 1.76776,0.75761 -0.50508,0.25254 1.26269,2.77792 1.76776,2.52538 0.50507,4.79822 1.26269,7.3236 0.75761,2.52538 -2.02031,3.53554 -2.52538,5.55584 -0.50508,2.02031 -8.5863,-0.25254 -8.5863,-0.25254 l -5.05076,0 -4.29315,-2.27284 z"
         style="fill:#ccaaff;fill-opacity:1;fill-rule:evenodd;stroke:none;stroke-width:1px;stroke-linecap:butt;stroke-linejoin:miter;stroke-opacity:1" />
      <path
         inkscape:connector-curvature="0"
         id="path4307"
         d="m 537.85715,511.1122 5.89285,2.85714 1.96429,3.92858 -3.57143,0.35714 -5.53571,-3.57143 -2.14286,-4.28571 z"
         style="fill:#de87cd;fill-opacity:1;fill-rule:evenodd;stroke:none;stroke-width:1px;stroke-linecap:butt;stroke-linejoin:miter;stroke-opacity:1" />
      <path
         sodipodi:nodetypes="cscccccc"
         inkscape:connector-curvature="0"
         id="path4309"
         d="m 491.25001,527.89792 c 0,0 -2.5,8.39285 -3.39286,8.57142 -0.89286,0.17857 -3.75001,2.32143 -3.75001,2.32143 l -2.67857,-1.96428 1.07143,-3.21429 3.57143,-1.42857 2.67857,-4.10714 z"
         style="fill:#de87cd;fill-opacity:1;fill-rule:evenodd;stroke:none;stroke-width:1px;stroke-linecap:butt;stroke-linejoin:miter;stroke-opacity:1" />
      <path
         inkscape:connector-curvature="0"
         id="path4311"
         d="m 536.78572,540.39792 3.75,3.57143 2.14285,1.25 0.17858,3.03571 -3.92858,-0.53571 -3.75,-3.92858 -1.07142,-3.57142 z"
         style="fill:#de87cd;fill-rule:evenodd;stroke:none;stroke-width:1px;stroke-linecap:butt;stroke-linejoin:miter;stroke-opacity:1" />
      <path
         inkscape:connector-curvature="0"
         id="path4313"
         d="m 495.35715,545.75506 -14.64286,-5.53571 c 0,0 -1.78572,6.96428 0.89286,9.82142 2.67857,2.85715 6.25,5 7.85714,5 1.60714,0 6.07143,-1.42857 6.07143,-1.42857 z"
         style="fill:#ccaaff;fill-opacity:1;fill-rule:evenodd;stroke:none;stroke-width:1px;stroke-linecap:butt;stroke-linejoin:miter;stroke-opacity:1" />
      <path
         inkscape:connector-curvature="0"
         id="path4315"
         d="m 526.96429,558.6122 13.39286,-0.53571 2.67857,-0.71429 c 0,0 0.89285,8.03572 -2.5,8.21429 -3.39286,0.17857 -8.75,2.5 -8.75,2.5 l -5.17857,-2.85714 z"
         style="fill:#ccaaff;fill-opacity:1;fill-rule:evenodd;stroke:none;stroke-width:1px;stroke-linecap:butt;stroke-linejoin:miter;stroke-opacity:1" />
      <path
         inkscape:connector-curvature="0"
         id="path4317"
         d="m 494.10715,564.32649 -8.92858,-1.96429 -6.07142,-1.96428 c 0,0 -0.71429,7.32143 0.35714,8.03571 1.07143,0.71429 5.71428,3.92857 5.71428,3.92857 l 6.07143,1.25 4.28572,-1.60714 z"
         style="fill:#ccaaff;fill-opacity:1;fill-rule:evenodd;stroke:none;stroke-width:1px;stroke-linecap:butt;stroke-linejoin:miter;stroke-opacity:1" />
      <path
         inkscape:connector-curvature="0"
         id="path4319"
         d="m 521.78572,582.71935 8.39285,2.67857 3.75,-0.35715 c 0,0 4.64286,1.60715 1.78572,3.39286 -2.85714,1.78572 -6.78572,3.92857 -6.78572,3.92857 l -5.71428,-2.14285 -1.78572,-3.39286 z"
         style="fill:#ccaaff;fill-opacity:1;fill-rule:evenodd;stroke:none;stroke-width:1px;stroke-linecap:butt;stroke-linejoin:miter;stroke-opacity:1" />
      <path
         inkscape:connector-curvature="0"
         id="path4321"
         d="M 492.67857,584.50506 485,582.71935 l -5.35714,-0.89286 2.14286,6.60714 c 0,0 3.92857,3.03572 5,3.21429 1.07143,0.17857 7.14285,-2.85715 7.14285,-2.85715 z"
         style="fill:#ccaaff;fill-opacity:1;fill-rule:evenodd;stroke:none;stroke-width:1px;stroke-linecap:butt;stroke-linejoin:miter;stroke-opacity:1" />
      <path
         inkscape:connector-curvature="0"
         id="path4323"
         d="m 513.03572,595.93363 5.53571,5.89286 c 0,0 0.89286,3.39286 -0.71428,2.85714 -1.60715,-0.53571 -6.78572,-8.57143 -6.78572,-8.57143 z"
         style="fill:#ccaaff;fill-opacity:1;fill-rule:evenodd;stroke:none;stroke-width:1px;stroke-linecap:butt;stroke-linejoin:miter;stroke-opacity:1" />
      <path
         sodipodi:nodetypes="cscccc"
         inkscape:connector-curvature="0"
         id="path4325"
         d="m 492.14286,602.89792 c 0,0 -2.67857,4.46428 -5.71429,3.92857 -3.03571,-0.53572 -3.57142,-2.32143 -3.57142,-2.32143 l 2.32142,-1.42857 7.22952,-2.08158 z"
         style="fill:#ccaaff;fill-opacity:1;fill-rule:evenodd;stroke:none;stroke-width:1px;stroke-linecap:butt;stroke-linejoin:miter;stroke-opacity:1" />
      <path
         sodipodi:nodetypes="csccc"
         inkscape:connector-curvature="0"
         id="path4327"
         d="m 506.96429,610.21935 c 0,0 6.25,5.17857 5.17857,5.71428 C 511.07143,616.46935 510,616.64792 510,616.64792 l -3.74102,-5.79197 c -0.0595,-4.36761 0.70531,-0.6366 0.70531,-0.6366 z"
         style="fill:#ccaaff;fill-opacity:1;fill-rule:evenodd;stroke:none;stroke-width:1px;stroke-linecap:butt;stroke-linejoin:miter;stroke-opacity:1" />
      <path
         inkscape:connector-curvature="0"
         id="path4329"
         d="m 500.05095,622.10966 2.85714,3.92857 c 0,0 1.96429,2.67858 0.71429,2.67858 -1.25,0 -4.28572,-1.78572 -4.28572,-1.78572 l -0.71428,-3.92857 z"
         style="fill:#ccaaff;fill-opacity:1;fill-rule:evenodd;stroke:none;stroke-width:1px;stroke-linecap:butt;stroke-linejoin:miter;stroke-opacity:1" />
      <path
         sodipodi:nodetypes="cssc"
         inkscape:connector-curvature="0"
         id="path4331"
         d="m 491.60715,622.00506 c 0,0 0.53508,8.56645 -2.32143,8.92857 -2.85018,0.36132 -4.11332,-1.53942 -3.92857,-3.57143 0.18856,-2.07393 6.25,-5.35714 6.25,-5.35714 z"
         style="fill:#ccaaff;fill-opacity:1;fill-rule:evenodd;stroke:none;stroke-width:1px;stroke-linecap:butt;stroke-linejoin:miter;stroke-opacity:1" />
      <path
         inkscape:connector-curvature="0"
         id="path4333"
         d="m 487.85715,617.00506 c 0,0 -3.21429,1.25 -5.17858,1.07143 -1.96428,-0.17857 -0.71428,-1.96429 -0.71428,-1.96429 l 6.42857,-1.07143 z"
         style="fill:#ccaaff;fill-opacity:1;fill-rule:evenodd;stroke:none;stroke-width:1px;stroke-linecap:butt;stroke-linejoin:miter;stroke-opacity:1" />
      <path
         inkscape:connector-curvature="0"
         id="path4335"
         d="m 472.5,470.21934 24.28572,-11.42857 z"
         style="fill:none;fill-rule:evenodd;stroke:#00ff00;stroke-width:1px;stroke-linecap:butt;stroke-linejoin:miter;stroke-opacity:1" />
      <path
         inkscape:connector-curvature="0"
         id="path4337"
         d="m 505.35715,469.50506 -6.42858,20.35714 z"
         style="fill:none;fill-rule:evenodd;stroke:#00ff00;stroke-width:1px;stroke-linecap:butt;stroke-linejoin:miter;stroke-opacity:1" />
      <path
         inkscape:connector-curvature="0"
         id="path4339"
         d="m 518.92857,467.3622 21.42858,17.14286 z"
         style="fill:none;fill-rule:evenodd;stroke:#00ff00;stroke-width:1px;stroke-linecap:butt;stroke-linejoin:miter;stroke-opacity:1" />
    </g>
    <text
       xml:space="preserve"
       style="font-style:normal;font-weight:normal;font-size:40px;line-height:100%;font-family:sans-serif;letter-spacing:0px;word-spacing:0px;fill:#aa0088;fill-opacity:1;stroke:none;stroke-width:1px;stroke-linecap:butt;stroke-linejoin:miter;stroke-opacity:1;"
       x="9.8065348"
       y="1045.6169"
       id="text3461"
       sodipodi:linespacing="100%"
       inkscape:export-filename="\\Dns03\共通\Webチーム\Webサイト開発業務\北九州観光おすすめマップ(井本)\00.要件定義\提案画像\アイコン\地図上用のアイコン\吉祥寺.png"
       inkscape:export-xdpi="90"
       inkscape:export-ydpi="90"><tspan
         sodipodi:role="line"
         x="9.8065348"
         y="1045.6169"
         id="tspan3465"
         style="font-style:normal;font-variant:normal;font-weight:normal;font-stretch:normal;font-size:15px;line-height:100%;font-family:sans-serif;-inkscape-font-specification:'sans-serif, Normal';text-align:start;writing-mode:lr-tb;text-anchor:start;fill:#aa0088;">吉祥寺</tspan></text>
  </g>
</svg>
