<?xml version="1.0" encoding="UTF-8" standalone="no"?>
<!-- Created with Inkscape (http://www.inkscape.org/) -->

<svg
   xmlns:dc="http://purl.org/dc/elements/1.1/"
   xmlns:cc="http://creativecommons.org/ns#"
   xmlns:rdf="http://www.w3.org/1999/02/22-rdf-syntax-ns#"
   xmlns:svg="http://www.w3.org/2000/svg"
   xmlns="http://www.w3.org/2000/svg"
   xmlns:xlink="http://www.w3.org/1999/xlink"
   xmlns:sodipodi="http://sodipodi.sourceforge.net/DTD/sodipodi-0.dtd"
   xmlns:inkscape="http://www.inkscape.org/namespaces/inkscape"
   width="210mm"
   height="297mm"
   id="svg2"
   version="1.1"
   inkscape:version="0.48.2 r9819"
   sodipodi:docname="花菖蒲.svg">
  <defs
     id="defs4">
    <linearGradient
       inkscape:collect="always"
       id="linearGradient3832">
      <stop
         style="stop-color:#ff55dd;stop-opacity:1;"
         offset="0"
         id="stop3834" />
      <stop
         style="stop-color:#ff55dd;stop-opacity:0;"
         offset="1"
         id="stop3836" />
    </linearGradient>
    <linearGradient
       inkscape:collect="always"
       id="linearGradient3824">
      <stop
         style="stop-color:#ff55dd;stop-opacity:1;"
         offset="0"
         id="stop3826" />
      <stop
         style="stop-color:#ff55dd;stop-opacity:0;"
         offset="1"
         id="stop3828" />
    </linearGradient>
    <linearGradient
       inkscape:collect="always"
       id="linearGradient3816">
      <stop
         style="stop-color:#ff55dd;stop-opacity:1;"
         offset="0"
         id="stop3818" />
      <stop
         style="stop-color:#ff55dd;stop-opacity:0;"
         offset="1"
         id="stop3820" />
    </linearGradient>
    <linearGradient
       inkscape:collect="always"
       id="linearGradient3808">
      <stop
         style="stop-color:#ff55dd;stop-opacity:1;"
         offset="0"
         id="stop3810" />
      <stop
         style="stop-color:#ff55dd;stop-opacity:0;"
         offset="1"
         id="stop3812" />
    </linearGradient>
    <linearGradient
       inkscape:collect="always"
       id="linearGradient3800">
      <stop
         style="stop-color:#ff55dd;stop-opacity:1;"
         offset="0"
         id="stop3802" />
      <stop
         style="stop-color:#ff55dd;stop-opacity:0;"
         offset="1"
         id="stop3804" />
    </linearGradient>
    <linearGradient
       inkscape:collect="always"
       xlink:href="#linearGradient3800"
       id="linearGradient3806"
       x1="338.50794"
       y1="560.13191"
       x2="366.57143"
       y2="560.13191"
       gradientUnits="userSpaceOnUse"
       gradientTransform="translate(8.9285713,1.4285714)" />
    <linearGradient
       inkscape:collect="always"
       xlink:href="#linearGradient3808"
       id="linearGradient3814"
       x1="348.85195"
       y1="528.5675"
       x2="384.57218"
       y2="528.5675"
       gradientUnits="userSpaceOnUse"
       gradientTransform="translate(1.4285714,6.4285714)" />
    <radialGradient
       inkscape:collect="always"
       xlink:href="#linearGradient3816"
       id="radialGradient3822"
       cx="386.03436"
       cy="515.79694"
       fx="386.03436"
       fy="515.79694"
       r="15.910267"
       gradientTransform="matrix(-0.12236601,2.7610204,-2.0244706,-0.08972277,1476.059,-499.13027)"
       gradientUnits="userSpaceOnUse" />
    <linearGradient
       inkscape:collect="always"
       xlink:href="#linearGradient3824"
       id="linearGradient3830"
       x1="388.42143"
       y1="532.60782"
       x2="424.99361"
       y2="532.60782"
       gradientUnits="userSpaceOnUse"
       gradientTransform="translate(-1.0714286,2.8571428)" />
    <linearGradient
       inkscape:collect="always"
       xlink:href="#linearGradient3832"
       id="linearGradient3838"
       x1="406.61746"
       y1="558.14476"
       x2="432.25193"
       y2="558.14476"
       gradientUnits="userSpaceOnUse"
       gradientTransform="matrix(0.96894887,0.24726117,-0.24726117,0.96894887,138.1743,-85.664603)" />
  </defs>
  <sodipodi:namedview
     id="base"
     pagecolor="#ffffff"
     bordercolor="#666666"
     borderopacity="1.0"
     inkscape:pageopacity="0.0"
     inkscape:pageshadow="2"
     inkscape:zoom="0.9899495"
     inkscape:cx="375"
     inkscape:cy="483.57503"
     inkscape:document-units="px"
     inkscape:current-layer="layer1"
     showgrid="false"
     inkscape:window-width="1366"
     inkscape:window-height="705"
     inkscape:window-x="-8"
     inkscape:window-y="-8"
     inkscape:window-maximized="1" />
  <metadata
     id="metadata7">
    <rdf:RDF>
      <cc:Work
         rdf:about="">
        <dc:format>image/svg+xml</dc:format>
        <dc:type
           rdf:resource="http://purl.org/dc/dcmitype/StillImage" />
        <dc:title></dc:title>
      </cc:Work>
    </rdf:RDF>
  </metadata>
  <g
     inkscape:label="レイヤー 1"
     inkscape:groupmode="layer"
     id="layer1">
    <g
       id="g3858"
       inkscape:export-filename="\\Dns03\共通\Webチーム\Webサイト開発業務\北九州観光おすすめマップ(井本)\00.要件定義\提案画像\花菖蒲.png"
       inkscape:export-xdpi="90"
       inkscape:export-ydpi="90">
      <path
         sodipodi:nodetypes="ccccccscc"
         inkscape:connector-curvature="0"
         id="path2996"
         d="m 395.9798,614.71359 c -0.56063,8.07645 -0.78826,16.0974 -3.283,24.4962 -3.44066,6.3295 -6.95489,12.54864 -12.37437,15.9099 -5.01576,-3.98055 -9.79833,-9.2437 -14.14213,-16.92005 -7.10646,-12.12624 -11.14333,-23.308 -13.8896,-34.09265 l 10.85914,13.8896 c 0,0 11.61675,17.17259 13.38452,21.46574 1.76777,4.29315 4.29315,7.32361 4.29315,7.32361 2.39116,-19.72495 9.8116,-19.32835 15.15229,-32.07235 z"
         style="fill:#8dd35f;stroke:none;stroke-width:1px;stroke-linecap:butt;stroke-linejoin:miter;stroke-opacity:1" />
      <path
         inkscape:connector-curvature="0"
         id="path2999"
         d="m 373.75644,613.95598 1.76777,33.58757 4.29315,0.50507 -2.27284,-35.86041 z"
         style="fill:#b3ff80;stroke:none;stroke-width:1px;stroke-linecap:butt;stroke-linejoin:miter;stroke-opacity:1" />
      <path
         inkscape:connector-curvature="0"
         id="path3001"
         d="m 373.25137,568.24657 c 0,0 -11.8693,3.53554 -15.40483,8.83884 -3.53553,5.3033 1.51523,22.98097 1.26269,23.48604 -0.25254,0.50508 5.05076,16.92006 11.86929,15.15229 6.81853,-1.76776 11.61676,-7.82868 13.8896,-7.82868 2.27284,0 10.85914,-4.04061 18.18275,-3.53553 7.3236,0.50507 11.36421,-5.3033 10.10152,-12.62691 -1.26269,-7.32361 -7.3236,-18.68782 -9.84898,-20.20305 -2.52539,-1.51523 -8.33376,-2.52538 -8.33376,-2.52538 z"
         style="fill:#bc5fd3;stroke:none;stroke-width:1px;stroke-linecap:butt;stroke-linejoin:miter;stroke-opacity:1" />
      <path
         inkscape:connector-curvature="0"
         id="path3005"
         d="m 370.17857,573.25504 c 0,0 -9.10714,0.35714 -9.46428,6.96428 -0.35714,6.60715 -2.32143,10.53572 -0.53572,15.35715 1.78572,4.82142 3.92858,11.07142 9.10715,10.53571 5.17857,-0.53571 10.53571,-5 13.57143,-8.03571 3.03571,-3.03572 3.21428,-2.85715 4.64285,-4.28572 1.42857,-1.42857 7.5,2.14286 11.60715,-2.85714 4.10714,-5 5.35714,-7.32143 5.35714,-10.17857 0,-2.85715 -1.96429,-7.67857 -4.64286,-9.10715 -2.67857,-1.42857 -29.64286,1.60715 -29.64286,1.60715 z"
         style="fill:#ffaaee;stroke:none" />
      <path
         inkscape:connector-curvature="0"
         id="path3007"
         d="m 378.21429,558.25504 -1.60714,1.96428 c 0,0 -8.92857,1.07143 -8.92857,5.53572 0,4.46428 4.28571,6.07143 8.21428,5.17857 3.92857,-0.89286 6.25,-1.78572 7.67857,-3.39286 1.42858,-1.60714 9.64286,5.53572 11.96429,4.82143 2.32143,-0.71429 4.82143,-3.21429 3.39286,-5.53571 -1.42857,-2.32143 -5.17857,-4.28572 -6.42857,-5.17858 -1.25,-0.89285 -3.21429,-0.17857 -4.10715,-3.21428 -0.89285,-3.03572 -10.17857,-0.17857 -10.17857,-0.17857 z"
         style="fill:#ddafe9;stroke:none" />
      <path
         inkscape:connector-curvature="0"
         id="path3009"
         d="m 392.14286,554.14789 c 0,0 17.32143,-8.57142 23.92857,-7.85714 6.60714,0.71429 13.92857,-3.57143 13.92857,-3.57143 0,0 3.21429,-8.57143 -4.28571,-11.78571 -7.5,-3.21429 -13.57143,-1.60714 -13.57143,-1.60714 0,0 -6.96429,2.67857 -8.75,6.60714 -1.78571,3.92857 -5.17857,5.53571 -5.17857,5.53571 L 392.5,550.57647 z"
         style="fill:#ddafe9;stroke:none;stroke-width:1px;stroke-linecap:butt;stroke-linejoin:miter;stroke-opacity:1" />
      <path
         inkscape:connector-curvature="0"
         id="path3011"
         d="m 396.75951,547.62133 c 0,0 -1.97974,6.31368 -0.29722,7.6645 1.68252,1.35083 3.04052,-1.80422 2.89012,2.39616 -0.1504,4.20038 -2.42846,9.51647 -1.9643,12.03074 0.46417,2.51427 2.90916,7.37695 5.90553,5.74576 2.99638,-1.6312 7.13356,-6.28856 8.56911,-7.58087 1.43555,-1.29232 4.13719,-4.65737 5.27084,-6.21102 1.13364,-1.55365 5.61579,-14.7848 5.4941,-16.4745 -0.1217,-1.6897 -5.4629,1.18607 -5.4629,1.18607 l -9.71102,1.94494 z"
         style="fill:url(#linearGradient3838);fill-opacity:1;stroke:none" />
      <path
         sodipodi:nodetypes="cssssssssssc"
         inkscape:connector-curvature="0"
         id="path3013"
         d="m 387.85714,552.54075 c 0,0 -0.17857,-7.67857 1.25,-9.64286 1.42858,-1.96428 4.82144,-5.89286 6.25001,-7.85714 1.42857,-1.96429 -0.17858,-6.25 3.03571,-8.92857 3.21428,-2.67857 3.92857,-7.5 8.57143,-8.75 4.64285,-1.25 10.17857,-2.85715 14.28571,-1.42857 4.10714,1.42857 1.78572,3.75 -1.96428,6.07142 -3.75,2.32143 -8.75,5.89286 -11.07143,8.57143 -2.32143,2.67857 -3.92857,6.07143 -6.96429,8.75 -3.03571,2.67857 -4.46428,5.35715 -6.25,7.14286 -1.78571,1.78571 -2.5,4.82143 -4.28571,8.03571 -1.78572,3.21429 -2.85715,-1.96428 -2.85715,-1.96428 z"
         style="fill:url(#linearGradient3830);fill-opacity:1;stroke:none" />
      <path
         sodipodi:nodetypes="ccccccccccccc"
         inkscape:connector-curvature="0"
         id="path3014"
         d="m 369.75915,572.38145 0,7.82868 4.54569,-5.26884 1.01015,8.39753 3.283,-6.61126 2.52538,11.52366 0.75761,-10.55877 1.76777,9.9606 c 4.21487,1.9087 1.85416,-4.68886 2.27284,-8.44281 0.50508,-4.5138 4.79823,6.36385 4.79823,6.36385 l -0.75762,-12.92728 8.08122,7.83382 -5.05076,-9.15772"
         style="fill:#c56baa;stroke:none;fill-opacity:1" />
      <path
         sodipodi:nodetypes="cccssscc"
         inkscape:connector-curvature="0"
         id="path3016"
         d="m 383.187,551.17115 c 0,0 -3.6633,-8.93063 -7.11966,-20.84337 -12.78836,-13.84236 -4.57654,-23.22137 -0.45648,-35.47264 0.0919,-6.81083 16.66751,-9.09137 17.42513,-1.01015 0.75761,8.08122 8.88253,12.19854 6.56599,29.54696 -1.0095,7.56011 -6.26814,7.70563 -7.76741,12.76215 -1.36209,4.59389 -5.11204,16.0272 -5.11204,16.0272 z"
         style="fill:url(#radialGradient3822);fill-opacity:1;stroke:none" />
      <path
         inkscape:connector-curvature="0"
         id="path3018"
         d="m 379.28571,558.07647 c 0,0 -2.32143,-8.39286 -6.78571,-14.82143 -4.46429,-6.42857 -3.75,-8.21428 -9.64286,-13.39286 C 356.96428,524.68361 355,524.1479 352.5,520.93361 c -2.5,-3.21428 -1.96429,-8.21428 -0.35715,-8.57143 1.60715,-0.35714 10.53572,-1.60714 14.10715,2.67858 3.57143,4.28571 7.67857,11.42857 11.07143,16.78571 3.39285,5.35714 6.78571,17.14286 8.03571,21.60714 1.25,4.46429 -6.07143,4.64286 -6.07143,4.64286 z"
         style="fill:url(#linearGradient3814);fill-opacity:1;stroke:none" />
      <path
         inkscape:connector-curvature="0"
         id="path3020"
         d="m 374.10714,550.57647 c 0,0 -10.89285,-4.46428 -15.89285,-3.57143 -5,0.89286 -9.28572,-4.10714 -8.21429,-8.03571 1.07143,-3.92857 2.67857,-10.35714 12.14286,-7.85714 9.46428,2.5 6.07143,-7.32143 11.60714,3.57143 5.53571,10.89285 0.35714,15.89285 0.35714,15.89285 z"
         style="fill:#ddafe9;stroke:none" />
      <path
         inkscape:connector-curvature="0"
         id="path3022"
         d="m 374.10714,548.25505 c 0,0 -3.39286,10.35714 -4.64286,13.92857 -1.25,3.57143 -0.17857,2.5 -4.64285,5.35715 -4.46429,2.85714 -4.64286,4.46428 -8.03572,6.25 -3.39286,1.78571 -3.21428,6.07142 -6.07143,0.53571 -2.85714,-5.53571 -3.39285,-10.17857 -2.14285,-14.28571 1.25,-4.10715 3.39285,-10.53572 7.5,-12.14286 4.10714,-1.60714 5.35714,-2.5 9.82142,-1.25 4.46429,1.25 9.10715,1.96428 9.10715,1.96428 z"
         style="fill:url(#linearGradient3806);fill-opacity:1;stroke:none" />
    </g>
  </g>
</svg>
