<?xml version="1.0" encoding="UTF-8" standalone="no"?>
<!-- Created with Inkscape (http://www.inkscape.org/) -->

<svg
   xmlns:dc="http://purl.org/dc/elements/1.1/"
   xmlns:cc="http://creativecommons.org/ns#"
   xmlns:rdf="http://www.w3.org/1999/02/22-rdf-syntax-ns#"
   xmlns:svg="http://www.w3.org/2000/svg"
   xmlns="http://www.w3.org/2000/svg"
   xmlns:sodipodi="http://sodipodi.sourceforge.net/DTD/sodipodi-0.dtd"
   xmlns:inkscape="http://www.inkscape.org/namespaces/inkscape"
   width="64"
   height="64"
   id="svg3900"
   version="1.1"
   inkscape:version="0.91 r13725"
   sodipodi:docname="菅生の滝.svg">
  <defs
     id="defs3902" />
  <sodipodi:namedview
     id="base"
     pagecolor="#ffffff"
     bordercolor="#666666"
     borderopacity="1.0"
     inkscape:pageopacity="0.0"
     inkscape:pageshadow="2"
     inkscape:zoom="3.959798"
     inkscape:cx="24.640885"
     inkscape:cy="32.936927"
     inkscape:document-units="px"
     inkscape:current-layer="layer1"
     showgrid="false"
     inkscape:window-width="1366"
     inkscape:window-height="705"
     inkscape:window-x="-8"
     inkscape:window-y="-8"
     inkscape:window-maximized="1"
     units="px"
     width="64px" />
  <metadata
     id="metadata3905">
    <rdf:RDF>
      <cc:Work
         rdf:about="">
        <dc:format>image/svg+xml</dc:format>
        <dc:type
           rdf:resource="http://purl.org/dc/dcmitype/StillImage" />
        <dc:title></dc:title>
      </cc:Work>
    </rdf:RDF>
  </metadata>
  <g
     inkscape:label="レイヤー 1"
     inkscape:groupmode="layer"
     id="layer1"
     transform="translate(0,-988.3622)">
    <g
       id="g3890"
       inkscape:export-filename="\\Dns03\共通\Webチーム\北九州観光おすすめマップ(井本)\01.サイト設計\提案画像\滝.png"
       inkscape:export-xdpi="90"
       inkscape:export-ydpi="90"
       transform="matrix(0.17040452,0,0,0.17040452,-32.413057,911.36588)">
      <path
         sodipodi:nodetypes="ccccccccccc"
         inkscape:connector-curvature="0"
         id="path3919"
         d="m 291.42901,539.45723 c -3.05253,-1.66663 -6.78449,-0.59929 -11.11168,-12.37437 -0.73295,-10.14866 3.36712,-18.84731 7.78536,-21.83557 5.41662,-5.22557 7.86929,-5.88183 12.68292,-7.48949 6.6225,0.46741 12.77827,2.79358 17.38181,4.60696 4.60887,-2.25146 9.4523,-7.14664 14.67784,-5.0814 10.98856,1.47139 14.34566,9.67981 19.95052,14.14214 2.68903,4.42829 -3.89596,0.0747 -9.09137,2.77791 l -16.41498,3.15673 -15.15229,15.27856 z"
         style="fill:#37c871;stroke:none" />
      <path
         sodipodi:nodetypes="cccccccccccccccccccccccccc"
         inkscape:connector-curvature="0"
         id="path3921"
         d="m 350.77547,506.37473 c 2.62948,-6.88943 8.31764,-13.04927 13.80294,-18.03481 4.91129,-3.62517 9.82258,-3.51951 14.73387,-2.42078 3.2957,0.42606 7.527,-0.31738 9.09137,2.27285 l 3.53554,5.61711 c 4.44701,-5.06552 8.38709,-4.04794 12.37437,-3.59681 l 10.10152,4.79823 c 2.09515,-10.24174 7.32,-7.33878 11.61676,-8.33376 4.55213,1.47658 9.27502,1.92854 13.38452,6.06091 4.42626,4.57896 3.99485,7.94351 2.77792,11.11168 5.90905,4.70855 9.99128,10.02603 11.61675,16.16244 3.77759,5.27382 5.77554,11.2595 4.79823,18.43528 -0.71843,10.26601 -3.58216,17.67163 -8.5863,22.22336 10.70475,5.32699 11.64645,18.37066 5.55584,22.22336 l -10.85914,3.03045 -7.32361,-3.03045 -4.29315,-9.34391 -0.25253,-8.5863 -0.50508,-16.66752 -3.283,-17.42513 -9.09137,-15.15229 -34.59772,-4.29315 -7.07107,2.52539 -20.70813,1.51522 -4.79822,0.25254 z"
         style="fill:#008033;stroke:none" />
      <path
         sodipodi:nodetypes="cssssscsscssssccccc"
         inkscape:connector-curvature="0"
         id="path3923"
         d="m 355.82623,514.45595 c 0,0 10.10153,-9.59645 14.64722,-8.58629 4.54568,1.01015 16.92005,-5.30331 21.97081,-1.01016 5.05077,4.29315 5.77003,5.00268 6.66288,5.18125 0.89286,0.17857 3.03572,0 7.32143,-0.53571 4.28572,-0.53572 3.21429,-5.17857 7.85715,-2.14286 4.64285,3.03572 6.60714,3.39286 6.60714,3.39286 0,0 10.89286,-2.67857 13.39286,-0.89286 2.5,1.78572 8.92857,5.35714 7.67857,11.07143 -1.25,5.71429 -6.25,9.46429 -6.25,9.46429 0,0 5.89285,0.35714 6.60714,4.82142 0.71429,4.46429 1.96429,9.28572 -0.35714,13.75001 -2.32143,4.46428 3.57143,12.14285 0.89285,16.60714 -2.67857,4.46428 -6.78571,9.46429 -9.10714,8.57143 -2.32143,-0.89286 -3.92857,-25.53572 -3.92857,-25.53572 L 425.71429,532.54075 418.75,517.1836 c -11.48809,0.67407 -22.61905,-0.28167 -34.10714,-4.82142 -2.65917,10.14218 -24.59888,5.39987 -28.81663,2.09377 z"
         style="fill:#55ff99;stroke:none" />
      <path
         sodipodi:nodetypes="ccccccccssccccc"
         inkscape:connector-curvature="0"
         id="path3927"
         d="m 405.57625,700.57656 -16.41498,0.25254 c -4.89844,-11.60634 -6.1761,-21.76436 -7.82868,-32.07235 2.4551,-8.30595 6.39461,-13.64309 10.85914,-17.9302 l 15.9099,-2.77792 c -4.04986,-9.32356 -2.34464,-15.91361 -2.77792,-22.22336 4.20374,-8.7651 10.21798,-8.47966 18.43528,-9.21764 l 5.55584,-23.41209 c 0,0 11.54722,-13.90721 12.62691,-10.80683 0.76585,2.19916 18.32558,-5.37184 21.46574,6.56599 3.88072,14.7532 5.80838,20.20305 5.80838,20.20305 l 6.56599,12.12183 5.80838,9.84899 -3.03046,69.44799 z"
         style="fill:#7fff2a;stroke:none" />
      <path
         sodipodi:nodetypes="cssssscccsc"
         inkscape:connector-curvature="0"
         id="path3925"
         d="m 406.07143,699.86218 c 0,0 -8.75898,-24.05484 -4.83041,-33.6977 3.92857,-9.64285 18.90692,-13.92485 21.76406,-8.5677 2.85714,5.35714 -8.50901,-11.79431 0.88018,-23.43775 3.70589,-4.59562 14.32434,-6.1944 14.26841,-5.3033 -0.23009,3.66603 1.96837,-30.39338 12.12183,-28.53681 0.73363,0.13414 9.82995,-3.16577 14.14213,1.01015 12.8162,7.26213 8.59649,27.90127 9.95067,26.98914 19.0628,5.38946 14.63265,45.79881 12.77777,52.81291 -4.79823,17.67767 -2.77792,14.14214 -6.31346,17.93021 -3.53553,3.78807 -74.76118,0.80085 -74.76118,0.80085 z"
         style="fill:#71c837;stroke:none" />
      <path
         sodipodi:nodetypes="ccccccsscsccsccc"
         inkscape:connector-curvature="0"
         id="path3931"
         d="m 348.39286,689.68361 -19.64286,0 c -2.7513,-2.32122 -5.37151,-3.46266 -8.57143,-9.82143 0,0 -15.71428,3.92857 -18.92857,1.60714 -17.71249,-12.03377 6.65678,-15.68765 7.67857,-15.53571 8.75,2.32143 6.96429,-0.71429 6.96429,-0.71429 0,0 -18.18476,-10.12446 -9.64286,-14.82142 8.29929,-4.56355 8.75933,-2.17059 12.32143,-1.78572 3.72935,0.40294 13.75,3.39286 13.75,3.39286 0,0 -3.39286,-8.92857 1.42857,-9.10714 4.82143,-0.17858 13.92857,-0.71429 14.64286,-0.35715 0.71428,0.35715 10.17857,10.35715 10.17857,10.35715 0,0 13.75,-7.85715 22.32143,-2.5 8.57143,5.35714 8.57143,4.46428 8.57143,4.46428 l -5.54097,13.59681 z"
         style="fill:#afe9dd;stroke:none" />
      <path
         sodipodi:nodetypes="ccscsscssssscc"
         inkscape:connector-curvature="0"
         id="path3933"
         d="m 385.71429,694.32647 c -3.81138,0.76015 -5.46477,-1.2087 -7.85714,-5.17857 0,0 -7.85715,9.10714 -13.39286,6.42857 -5.53572,-2.67858 -10,-6.96429 -10,-6.96429 0,0 -15.17857,5 -14.64286,-1.78571 0.53571,-6.78572 -4.64286,-5.17857 -1.25,-5.89286 3.39286,-0.71429 13.39286,-3.21429 13.39286,-3.21429 0,0 -9.64286,-6.42857 -7.5,-7.67857 2.14285,-1.25 -1.25,-3.92857 5.89285,-3.03571 7.14286,0.89286 11.25,0.53571 12.5,0.89286 1.25,0.35714 -0.17857,-6.78572 2.67858,-6.42858 2.85714,0.35715 9.64285,-2.32142 12.67857,1.07143 3.03571,3.39286 4.82143,4.82143 4.82143,4.82143 z"
         style="fill:#80e5ff;fill-opacity:1;stroke:none" />
      <path
         sodipodi:nodetypes="ccccccccc"
         inkscape:connector-curvature="0"
         id="path3935"
         d="m 292.32143,541.29075 23.89794,-0.29586 10.03063,-8.63271 5.89286,-6.76033 18.39286,-5.28689 c 8.40624,-14.48745 -10.6739,-8.13513 -24.64286,-2.77421 l -15.04333,12.50526 -19.95667,9.81617 z"
         style="fill:#5fd35f;stroke:none" />
      <path
         sodipodi:nodetypes="ccssssccccccscc"
         inkscape:connector-curvature="0"
         id="path3939"
         d="m 388.42349,654.28685 -13.06635,-5.85324 c 0.14764,0 -4.02128,-54.90512 -3.29722,-57.47833 0.69105,-2.45592 2.12553,-35.49481 2.94008,-38.95024 1.09603,-4.64947 0.18783,-33.58873 5.3392,-37.69126 11.09387,-8.83512 10.49669,-0.71688 18.94651,-0.16588 19.95864,1.30148 22.31564,1.80317 20.71429,2.14285 l 10.71429,19.64286 1.42857,19.64286 2.85714,22.5 2.85714,6.42857 c -9.68252,5.79367 -11.36246,19.58992 -14.28571,32.14286 0,0 -19.19379,0.55911 -18.39286,13.57142 0.97671,15.86807 4.80033,18.70585 2.67857,17.85715 -6.30957,1.60694 -13.82624,1.79479 -19.43365,6.21038 z"
         style="fill:#c87137;stroke:none" />
      <path
         inkscape:connector-curvature="0"
         id="path3941"
         d="m 351.07143,670.57647 0.35714,-1.60715 7.5,0.53572 6.25,5 -1.96428,1.25 L 357.5,671.6479 Z"
         style="fill:#d5fff6;stroke:none" />
      <path
         style="fill:#d5fff6;stroke:none"
         d="m 340.35714,647.71933 0.35714,-1.60715 7.5,0.53572 6.25,5 -1.96428,1.25 -5.71429,-4.10714 z"
         id="path3943"
         inkscape:connector-curvature="0" />
      <path
         inkscape:connector-curvature="0"
         id="path3945"
         d="m 315,653.43362 0.35714,-1.60715 7.5,0.53572 6.25,5 -1.96428,1.25 -5.71429,-4.10714 z"
         style="fill:#d5fff6;stroke:none" />
      <path
         sodipodi:nodetypes="ccccccsscccccc"
         inkscape:connector-curvature="0"
         id="path3951"
         d="m 291.42901,540.71992 c -1.67322,18.71295 -3.36717,39.39595 -5.05076,59.09392 l -21.21321,35.86042 12.37437,42.17386 20.20305,10e-6 c -6.61491,-9.02454 2.6645,-10.43972 17.93021,-11.61676 0,0 -19.25596,-15.01563 -9.84899,-15.65736 1.06796,-0.0729 4.9135,-2.37535 8.29416,-2.69356 5.33712,-0.50237 10.6462,0.92579 10.6462,0.92579 l 13.63706,-78.53936 12.62691,-50.76017 -20.32932,4.16689 c -3.30238,6.9675 -9.34665,11.19311 -14.14214,16.66751 z"
         style="fill:#c87137;stroke:none" />
      <path
         sodipodi:nodetypes="ccccccccccccc"
         inkscape:connector-curvature="0"
         id="path3953"
         d="m 324.28571,649.50504 10,-60 5,-30.35714 13.21429,-43.57143 25,-1.78572 c 4.87357,16.86016 -1.19047,26.42857 -1.78571,39.64286 l -3.9719,38.19634 3.25761,56.80366 -16.42857,3.92857 -10.35714,-9.64286 -16.07143,1.07143 -0.71429,7.5 z"
         style="fill:#55ddff;stroke:none" />
      <path
         sodipodi:nodetypes="ccccc"
         inkscape:connector-curvature="0"
         id="path3955"
         d="m 361.25,518.79075 -9.10714,56.07143 1.96428,-0.17857 8.92857,-56.96429 z"
         style="fill:#ffffff;fill-opacity:1;stroke:none" />
      <path
         inkscape:connector-curvature="0"
         id="path3957"
         d="m 348.57143,540.21932 -8.21429,59.64286 2.14286,0 8.92857,-60 z"
         style="fill:#ffffff;fill-opacity:1;stroke:none" />
      <path
         inkscape:connector-curvature="0"
         id="path3959"
         d="m 362.85714,540.57647 -3.57143,58.21428 2.5,0 4.28572,-58.57143 z"
         style="fill:#ffffff;fill-opacity:1;stroke:none" />
      <path
         inkscape:connector-curvature="0"
         id="path3961"
         d="m 341.42857,615.57647 -1.78571,27.14285 3.92857,-1.07142 0,-24.64286 z"
         style="fill:#ffffff;fill-opacity:1;stroke:none" />
      <path
         inkscape:connector-curvature="0"
         id="path3963"
         d="m 348.92857,606.6479 1.78572,38.21428 1.78571,0.71429 -0.35714,-38.21429 z"
         style="fill:#ffffff;fill-opacity:1;stroke:none" />
      <path
         inkscape:connector-curvature="0"
         id="path3965"
         d="m 358.21429,630.93361 2.14285,19.28571 1.78572,-0.35714 -1.42857,-18.92857 z"
         style="fill:#ffffff;fill-opacity:1;stroke:none" />
      <path
         inkscape:connector-curvature="0"
         id="path3967"
         d="m 309.28571,612.00504 2.14286,-32.85714 11.07143,-27.5 -20,26.78571 z"
         style="fill:#e9c6af;stroke:none" />
      <path
         inkscape:connector-curvature="0"
         id="path3969"
         d="m 395,571.6479 -1.42857,-21.78572 6.07143,-18.57143 -14.28572,17.85715 z"
         style="fill:#e9c6af;stroke:none" />
      <path
         inkscape:connector-curvature="0"
         id="path3971"
         d="m 385,645.93361 7.14286,-35.35714 17.14285,-20.35715 -27.14285,16.07143 z"
         style="fill:#e9c6af;stroke:none" />
    </g>
    <text
       xml:space="preserve"
       style="font-style:normal;font-weight:normal;font-size:40px;line-height:125%;font-family:sans-serif;letter-spacing:0px;word-spacing:0px;fill:#000080;fill-opacity:1;stroke:none;stroke-width:1px;stroke-linecap:butt;stroke-linejoin:miter;stroke-opacity:1;"
       x="2.5253813"
       y="1045.291"
       id="text3357"
       sodipodi:linespacing="125%"
       inkscape:export-xdpi="90"
       inkscape:export-ydpi="90"><tspan
         sodipodi:role="line"
         id="tspan3359"
         x="2.5253813"
         y="1045.291"
         style="font-style:normal;font-variant:normal;font-weight:normal;font-stretch:normal;font-size:15px;line-height:125%;font-family:sans-serif;-inkscape-font-specification:'sans-serif, Normal';text-align:start;writing-mode:lr-tb;text-anchor:start;fill:#000080;">菅生の滝</tspan></text>
  </g>
</svg>
