<?xml version="1.0" encoding="UTF-8" standalone="no"?>
<!-- Created with Inkscape (http://www.inkscape.org/) -->

<svg
   xmlns:dc="http://purl.org/dc/elements/1.1/"
   xmlns:cc="http://creativecommons.org/ns#"
   xmlns:rdf="http://www.w3.org/1999/02/22-rdf-syntax-ns#"
   xmlns:svg="http://www.w3.org/2000/svg"
   xmlns="http://www.w3.org/2000/svg"
   xmlns:sodipodi="http://sodipodi.sourceforge.net/DTD/sodipodi-0.dtd"
   xmlns:inkscape="http://www.inkscape.org/namespaces/inkscape"
   width="210mm"
   height="297mm"
   id="svg2"
   version="1.1"
   inkscape:version="0.48.5 r10040"
   sodipodi:docname="電車.svg"
   inkscape:export-filename="\\Dns03\共通\Webチーム\北九州観光おすすめマップ(井本)\01.サイト設計\提案画像\電車.png"
   inkscape:export-xdpi="90"
   inkscape:export-ydpi="90">
  <defs
     id="defs4" />
  <sodipodi:namedview
     id="base"
     pagecolor="#ffffff"
     bordercolor="#666666"
     borderopacity="1.0"
     inkscape:pageopacity="0.0"
     inkscape:pageshadow="2"
     inkscape:zoom="1.9500298"
     inkscape:cx="269.10714"
     inkscape:cy="536.02501"
     inkscape:document-units="px"
     inkscape:current-layer="layer1"
     showgrid="false"
     inkscape:window-width="1366"
     inkscape:window-height="705"
     inkscape:window-x="-8"
     inkscape:window-y="-8"
     inkscape:window-maximized="1" />
  <metadata
     id="metadata7">
    <rdf:RDF>
      <cc:Work
         rdf:about="">
        <dc:format>image/svg+xml</dc:format>
        <dc:type
           rdf:resource="http://purl.org/dc/dcmitype/StillImage" />
        <dc:title></dc:title>
      </cc:Work>
    </rdf:RDF>
  </metadata>
  <g
     inkscape:label="レイヤー 1"
     inkscape:groupmode="layer"
     id="layer1">
    <g
       id="g3857">
      <path
         sodipodi:nodetypes="ccccccccccccccccccc"
         inkscape:connector-curvature="0"
         id="path3298"
         d="m 348.57142,582.00504 c -0.0833,-3.67857 -0.29514,-5.91188 -0.53571,-11.07143 l -17.67857,1.42857 -27.14285,-1.96428 -1.07143,1.24999 c -11.4881,-1.07143 -33.58035,-4.95831 -33.39286,-4.99999 l 0.17857,-1e-5 -29.82143,-3.03571 0.53572,-97.5 16.42857,-6.42857 19.28571,-4.10714 19.82143,-1.25001 20.53572,0.17858 20.71428,3.21428 43.92857,18.57143 26.42857,16.42857 0.35715,35.35715 -57.85715,53.57143 z"
         style="fill:#ffe6d5;stroke:#000000;stroke-width:1px;stroke-linecap:butt;stroke-linejoin:miter;stroke-opacity:1" />
      <path
         sodipodi:nodetypes="ccccc"
         inkscape:connector-curvature="0"
         id="path3300"
         d="m 241.55272,470.00924 23.23351,-2.65165 -0.3788,51.77032 -22.4759,-0.63135 z"
         style="fill:#cccccc;stroke:#000000;stroke-width:1px;stroke-linecap:butt;stroke-linejoin:miter;stroke-opacity:1" />
      <path
         sodipodi:nodetypes="ccccccc"
         inkscape:connector-curvature="0"
         id="path3302"
         d="m 309.86429,461.92802 32.57742,6.31345 0,51.01271 c -2.60956,3.0223 -5.21912,2.05082 -7.82868,2.27284 l -26.08168,-0.57905 c -1.10553,2.81125 -0.95293,-5.13459 -1.44498,-8.76486 0.36434,-17.201 -0.68426,-35.53236 2.77792,-50.25509 z"
         style="fill:#cccccc;stroke:#000000;stroke-width:1px;stroke-linecap:butt;stroke-linejoin:miter;stroke-opacity:1" />
      <path
         sodipodi:nodetypes="ccccccc"
         inkscape:connector-curvature="0"
         id="path3304"
         d="m 297.74246,476.07015 c 2.91265,1.86876 5.07219,4.11408 5.3033,7.32361 l 0.29139,87.26812 -34.81788,-3.6909 -0.57631,-85.85006 c -0.026,-3.28523 2.11882,-4.03791 4.04061,-5.05077 z"
         style="fill:none;stroke:#000000;stroke-width:1;stroke-linecap:butt;stroke-linejoin:miter;stroke-miterlimit:4;stroke-opacity:1;stroke-dasharray:none" />
      <path
         sodipodi:nodetypes="ccccccc"
         inkscape:connector-curvature="0"
         id="path3306"
         d="m 272.86746,564.71104 1.89403,-9.47018 c 1.21259,-1.97771 2.51538,-3.84267 5.05077,-4.16688 2.36688,-1.22806 7.22594,-0.79466 11.49048,-0.75761 2.9073,1.53472 6.41957,3.27202 7.3236,5.80837 l 0.25254,10.35407 z"
         style="fill:none;stroke:#000000;stroke-width:1px;stroke-linecap:butt;stroke-linejoin:miter;stroke-opacity:1" />
      <path
         sodipodi:nodetypes="ccccccccccccc"
         inkscape:connector-curvature="0"
         id="path3308"
         d="m 254.05336,526.76718 -2.77792,-0.88388 0.31568,-2.33598 7.19733,-15.78363 2.39912,-0.69448 0.1894,-8.39689 1.51523,-1.38896 0.12627,20.70813 -1.38896,-8.96511 -2.27284,0 -6.37659,15.40483 2.02031,0.63135 z"
         style="fill:#000000;stroke:none;stroke-width:1px;stroke-linecap:butt;stroke-linejoin:miter;stroke-opacity:1;fill-opacity:1" />
      <path
         style="fill:#000000;stroke:none;stroke-width:1px;stroke-linecap:butt;stroke-linejoin:miter;stroke-opacity:1;fill-opacity:1"
         d="m 322.74055,527.30289 2.77792,-0.88388 -0.31568,-2.33598 -7.19733,-15.78363 -2.39912,-0.69448 -0.1894,-8.39689 -1.51523,-1.38896 -0.12627,20.70813 1.38896,-8.96511 2.27284,0 6.37659,15.40483 -2.02031,0.63135 z"
         id="path3310"
         inkscape:connector-curvature="0"
         sodipodi:nodetypes="ccccccccccccc" />
      <rect
         ry="5.1785712"
         y="530.93359"
         x="241.78572"
         height="10.357142"
         width="16.785715"
         id="rect3312"
         style="fill:#ffccaa;fill-opacity:0;fill-rule:evenodd;stroke:none" />
      <path
         sodipodi:nodetypes="ccccccc"
         inkscape:connector-curvature="0"
         id="path4084"
         d="m 361.00644,470.91567 4.46428,0.89285 6.60715,67.67857 -11.25,4.10715 -0.35715,-8.03572 9.10714,-3.92857 z"
         style="fill:#0000ff;stroke:none;stroke-width:1px;stroke-linecap:butt;stroke-linejoin:miter;stroke-opacity:1" />
      <path
         inkscape:connector-curvature="0"
         id="path4086"
         d="M 374.64286,529.1479 402.5,517.36218 l 0.17857,3.75 -28.03571,16.25 z"
         style="fill:#0000ff;stroke:none;stroke-width:1px;stroke-linecap:butt;stroke-linejoin:miter;stroke-opacity:1" />
      <path
         inkscape:connector-curvature="0"
         id="path4088"
         d="m 372.32143,523.79075 30.35714,-10 0,1.78572 -29.28571,11.07143 z"
         style="fill:#ef0000;stroke:none;stroke-width:1px;stroke-linecap:butt;stroke-linejoin:miter;stroke-opacity:1;fill-opacity:1" />
      <path
         inkscape:connector-curvature="0"
         id="path4090"
         d="m 361.07143,528.79075 7.14286,-2.67857 -0.17857,2.85714 -6.07143,2.32143 z"
         style="fill:#ef0000;stroke:none;stroke-width:1px;stroke-linecap:butt;stroke-linejoin:miter;stroke-opacity:1;fill-opacity:1" />
      <path
         inkscape:connector-curvature="0"
         id="path4092"
         d="m 306.07143,533.25504 41.96429,0.71428 5.17857,-1.07142 -0.35715,2.67857 -7.14285,2.14285 -9.46429,0.53572 -31.60714,-1.25 z"
         style="fill:#ef0000;stroke:none;stroke-width:1px;stroke-linecap:butt;stroke-linejoin:miter;stroke-opacity:1;fill-opacity:1" />
      <rect
         ry="4.8214288"
         y="534.86218"
         x="315.71429"
         height="10"
         width="21.071428"
         id="rect4094"
         style="fill:#ffccaa;fill-opacity:0;fill-rule:nonzero;stroke:none" />
      <rect
         ry="4.8214288"
         y="478.96933"
         x="307.32144"
         height="40.535713"
         width="33.57143"
         id="rect4096"
         style="fill:#ffccaa;fill-opacity:0;fill-rule:nonzero;stroke:none" />
      <path
         inkscape:connector-curvature="0"
         id="path4101"
         d="m 337.5,541.29075 8.75,0.53572 6.25,-3.21429 0.53572,10 -7.67858,3.21429 -40,-0.89286 0,-11.78571 9.82143,0 0.53572,4.64285 20.71428,0.17857 z"
         style="fill:#0000ff;stroke:none;stroke-width:1px;stroke-linecap:butt;stroke-linejoin:miter;stroke-opacity:1" />
      <path
         sodipodi:nodetypes="ccccc"
         inkscape:connector-curvature="0"
         id="path4103"
         d="m 271.90301,538.64282 28.09699,0.3265 -0.89286,10.35715 -27.67857,-0.89286 z"
         style="fill:#0000ff;stroke:none" />
      <path
         sodipodi:nodetypes="ccccccccc"
         inkscape:connector-curvature="0"
         id="path4105"
         d="m 265.35714,537.71932 c 0.14333,3.48107 1.30066,8.00564 -0.35714,9.91072 l -24.28571,-0.80357 0.35714,-9.46429 0.99746,1.76777 0.25254,0.73223 c 6.94305,3.26733 12.77451,1.17414 17.51269,2.14286 l 0.0803,-4.61485 c -0.032,-0.0268 4.78748,-0.0925 5.44272,0.32913 z"
         style="fill:#0000ff;stroke:none" />
      <path
         sodipodi:nodetypes="ccccc"
         inkscape:connector-curvature="0"
         id="path4109"
         d="m 375.52421,486.67676 -0.50508,32.57742 6.566,-0.88389 -1.2627,-31.18846 z"
         style="fill:#cccccc;stroke:#000000;stroke-width:1px;stroke-linecap:butt;stroke-linejoin:miter;stroke-opacity:1" />
      <path
         inkscape:connector-curvature="0"
         id="path4111"
         d="m 384.36304,490.46483 -0.50507,24.74874 3.78807,-0.25254 0,-25.50635 z"
         style="fill:#cccccc;stroke:#000000;stroke-width:1px;stroke-linecap:butt;stroke-linejoin:miter;stroke-opacity:1" />
      <path
         inkscape:connector-curvature="0"
         id="path4113"
         d="m 388.40365,490.9699 0,21.71828 6.81853,-0.50507 0,-19.95051 z"
         style="fill:#cccccc;stroke:#000000;stroke-width:1px;stroke-linecap:butt;stroke-linejoin:miter;stroke-opacity:1" />
      <path
         inkscape:connector-curvature="0"
         id="path4117"
         d="m 395.72726,492.73767 c 0.12627,0.50508 5.3033,1.76777 5.3033,1.76777 l 1.01015,17.5514 -7.07106,0.75761 z"
         style="fill:#cccccc;stroke:#000000;stroke-width:1px;stroke-linecap:butt;stroke-linejoin:miter;stroke-opacity:1" />
      <path
         sodipodi:nodetypes="ccccc"
         inkscape:connector-curvature="0"
         id="path4119"
         d="m 349.0077,481.62599 0,25.12755 2.77792,-1.76777 -0.12626,-22.60217 z"
         style="fill:#cccccc;stroke:#000000;stroke-width:1px;stroke-linecap:butt;stroke-linejoin:miter;stroke-opacity:1" />
      <path
         inkscape:connector-curvature="0"
         id="path4121"
         d="m 354.81608,481.87853 c 0,0 -1.76777,79.80205 -1.76777,82.83251 0,3.03046 0,5.80838 0,5.80838 l 6.81853,-5.55584 -1.01015,-82.0749 z"
         style="fill:none;stroke:#000000;stroke-width:1px;stroke-linecap:butt;stroke-linejoin:miter;stroke-opacity:1" />
      <path
         sodipodi:nodetypes="cccccc"
         inkscape:connector-curvature="0"
         id="path4123"
         d="m 245.35714,564.50504 1.42857,11.78571 6.93366,8.27557 12.35206,1.42857 0.52302,-17.20414 z"
         style="fill:#1a1a1a;stroke:none;stroke-width:1px;stroke-linecap:butt;stroke-linejoin:miter;stroke-opacity:1" />
      <path
         sodipodi:nodetypes="ccccc"
         inkscape:connector-curvature="0"
         id="path4125"
         d="m 270,570.57647 -0.41842,16.23731 37.20413,3.40554 L 305,570.57647 z"
         style="fill:#1a1a1a;stroke:none;stroke-width:1px;stroke-linecap:butt;stroke-linejoin:miter;stroke-opacity:1" />
      <path
         sodipodi:nodetypes="ccccccc"
         inkscape:connector-curvature="0"
         id="path4127"
         d="m 310.40047,571.39536 0.35714,20.94888 19.59953,0.37508 9.28572,-6.07142 -1.07143,-13.57143 -12.85714,-0.71429 z"
         style="fill:#1a1a1a;stroke:none;stroke-width:1px;stroke-linecap:butt;stroke-linejoin:miter;stroke-opacity:1" />
      <path
         sodipodi:nodetypes="ccccccc"
         inkscape:connector-curvature="0"
         id="path4129"
         d="m 242.14286,564.1479 1.51523,25.4438 90.98477,10.27048 13.21428,-16.07143 0.48713,-12.51794 -22.98713,1.80366 z"
         style="fill:none;stroke:#000000;stroke-width:1px;stroke-linecap:butt;stroke-linejoin:miter;stroke-opacity:1" />
      <path
         sodipodi:nodetypes="ccccc"
         inkscape:connector-curvature="0"
         id="path3823"
         d="m 271.96429,532.71933 27.85714,0.53571 -1.07143,4.10714 -26.82533,-0.69262 z"
         style="fill:#ef0000;fill-opacity:1;stroke:none" />
      <path
         inkscape:connector-curvature="0"
         id="path3825"
         d="m 258.75,531.11218 6.60714,0.71429 -0.71428,3.57143 -5.53572,-0.17857 z"
         style="fill:#ef0000;stroke:none;stroke-width:1px;stroke-linecap:butt;stroke-linejoin:miter;stroke-opacity:1;fill-opacity:1" />
      <path
         sodipodi:nodetypes="ccccc"
         inkscape:connector-curvature="0"
         id="path3839"
         d="m 241.99466,541.47753 17.36201,-0.12627 -0.25255,-8.77569 -17.42512,-0.50508 z"
         style="fill:#ffe6d5;stroke:none;stroke-width:1px;stroke-linecap:butt;stroke-linejoin:miter;stroke-opacity:1;fill-opacity:1" />
      <path
         sodipodi:nodetypes="ccccccc"
         inkscape:connector-curvature="0"
         id="path3827"
         d="m 241.60714,533.25504 -2.67857,0 0.35714,-2.85714 19.7026,0.75761 -0.1046,0.9758 -16.84546,-0.35714 z"
         style="fill:#ef0000;stroke:none;stroke-width:1px;stroke-linecap:butt;stroke-linejoin:miter;stroke-opacity:1;fill-opacity:1" />
      <path
         sodipodi:nodetypes="cccccccc"
         inkscape:connector-curvature="0"
         id="path3829"
         d="m 274.92212,484.68709 21.11385,-0.86222 0.69634,5.12473 0.25254,29.29442 -3.53554,2.77792 -16.92005,-1.08412 -1.51523,-4.21918 z"
         style="fill:#cccccc;stroke:#000000;stroke-width:1px;stroke-linecap:butt;stroke-linejoin:miter;stroke-opacity:1" />
      <path
         sodipodi:nodetypes="ccccc"
         inkscape:connector-curvature="0"
         id="path3835"
         d="m 242.31034,533.77512 0.31567,5.80838 7.19734,-0.25254 0.25254,-5.80838 z"
         style="fill:#c83737;stroke:none;stroke-width:1px;stroke-linecap:butt;stroke-linejoin:miter;stroke-opacity:1" />
      <path
         sodipodi:nodetypes="ccccc"
         inkscape:connector-curvature="0"
         id="path3837"
         d="m 250.89664,533.90139 -0.12627,5.3033 7.82869,0.37881 0.18939,-5.93465 z"
         style="fill:#e3dbdb;stroke:none" />
      <path
         style="fill:#ef0000;stroke:none;stroke-width:1px;stroke-linecap:butt;stroke-linejoin:miter;stroke-opacity:1;fill-opacity:1"
         d="m 241.60714,533.25504 -2.67857,0 0.35714,-2.85714 19.7026,0.75761 -0.1046,0.9758 -16.84546,-0.35714 z"
         id="path3841"
         inkscape:connector-curvature="0"
         sodipodi:nodetypes="ccccccc" />
      <path
         style="fill:#ffe6d5;fill-opacity:1;stroke:none"
         d="m 316.63751,544.15611 20.5763,-0.12627 0.46173,-8.0614 -21.35369,-1.21937 z"
         id="path3847"
         inkscape:connector-curvature="0"
         sodipodi:nodetypes="ccccc" />
      <path
         style="fill:#c83737;stroke:none"
         d="m 328.11391,537.25727 0.31567,5.80838 7.19734,-0.25254 0.25254,-5.80838 z"
         id="path3849"
         inkscape:connector-curvature="0"
         sodipodi:nodetypes="ccccc" />
      <path
         style="fill:#e3dbdb;stroke:none"
         d="m 318.0395,537.29425 -0.12627,5.3033 7.82869,0.37881 0.18939,-5.93465 z"
         id="path3851"
         inkscape:connector-curvature="0"
         sodipodi:nodetypes="ccccc" />
      <path
         sodipodi:nodetypes="cccc"
         inkscape:connector-curvature="0"
         id="path3853"
         d="m 273.39286,475.66575 c -0.0257,-4.25518 1.00721,-4.13948 2.32143,-4.82142 2.77721,0.93526 5.14293,2.46705 3.39285,4.37499 -2.42379,1.0737 -3.80473,1.2165 -5.71428,0.44643 z"
         style="fill:#d35f5f;stroke:none;stroke-width:1px;stroke-linecap:butt;stroke-linejoin:miter;stroke-opacity:1" />
      <path
         style="fill:#d35f5f;stroke:none;stroke-width:1px;stroke-linecap:butt;stroke-linejoin:miter;stroke-opacity:1"
         d="m 289.91071,475.9336 c -0.0257,-4.25518 1.00721,-4.13948 2.32143,-4.82142 2.77721,0.93526 5.14293,2.46705 3.39285,4.37499 -2.42379,1.0737 -3.80473,1.2165 -5.71428,0.44643 z"
         id="path3855"
         inkscape:connector-curvature="0"
         sodipodi:nodetypes="cccc" />
    </g>
  </g>
</svg>
